<?xml version="1.0" encoding="utf-8"?>
<!-- Generator: Adobe Illustrator 16.0.3, SVG Export Plug-In . SVG Version: 6.00 Build 0)  -->
<!DOCTYPE svg PUBLIC "-//W3C//DTD SVG 1.1//EN" "http://www.w3.org/Graphics/SVG/1.1/DTD/svg11.dtd">
<svg version="1.1" id="yoko" xmlns="http://www.w3.org/2000/svg" xmlns:xlink="http://www.w3.org/1999/xlink" x="0px" y="0px"
	 width="720px" height="225px" viewBox="0 0 720 225" enable-background="new 0 0 720 225" xml:space="preserve">
<g>
	<g>
		<rect x="0.549" fill="#B4B4B5" width="133.243" height="31.954"/>
		<rect x="133.792" y="31.989" fill="#B4B4B5" width="79.851" height="31.953"/>
		<rect x="0.549" y="31.954" fill="#B4B4B5" width="133.243" height="0.035"/>
		<rect x="0.549" y="64.06" fill="#B4B4B5" width="80.699" height="31.955"/>
		<rect x="133.792" y="96.112" fill="#B4B4B5" width="105.686" height="31.889"/>
		<rect x="133.792" y="96.015" fill="#B4B4B5" width="105.686" height="0.097"/>
		<rect x="0.549" y="128.119" fill="#B4B4B5" width="80.699" height="31.954"/>
		<rect x="0.549" y="193.066" fill="#B4B4B5" width="133.243" height="31.934"/>
		<rect x="133.792" y="160.175" fill="#B4B4B5" width="79.851" height="31.89"/>
	</g>
	<g>
		<path fill="#231815" d="M299.679,99.299h52.266c31.381,0,55.055,19.68,55.055,59.899c0,35.174-18.008,61.343-55.055,61.343
			h-52.266V99.299z M326.358,198.109h23.747c15.411,0,30.155-9.562,30.155-36.375c0-24.416-8.412-40.024-34.893-40.024h-19.01
			L326.358,198.109L326.358,198.109z"/>
		<path fill="#231815" d="M418.684,99.299h57.094c23.078,0,38.689,7.47,38.689,30.018c0,11.873-5.939,20.209-16.479,25.281
			c14.744,4.268,22.215,15.672,22.215,30.76c0,24.638-20.877,35.185-42.691,35.185h-58.828V99.299L418.684,99.299z M445.301,148.326
			h27.012c9.404,0,16.404-4.204,16.404-14.409c0-11.54-8.936-13.938-18.406-13.938h-25.01V148.326z M445.301,199.755h28.547
			c10.539,0,19.742-3.339,19.742-15.933c0-12.417-7.867-17.289-19.146-17.289h-29.143V199.755z"/>
		<path fill="#231815" d="M556.428,180.271c0,16.145,12.541,22.386,26.814,22.386c9.396,0,23.547-2.703,23.547-15.097
			c0-13.088-18.082-15.289-35.889-20.025c-18.012-4.736-36.219-11.737-36.219-34.485c0-24.747,23.479-36.685,45.295-36.685
			c25.283,0,48.557,11.07,48.557,39.086h-25.748c-0.869-14.608-11.207-18.344-23.945-18.344c-8.537,0-18.408,3.537-18.408,13.742
			c0,9.338,5.865,10.539,36.219,18.342c8.805,2.201,36.02,7.804,36.02,35.297c0,22.266-17.541,38.921-50.492,38.921
			c-26.813,0-51.896-13.29-51.625-43.14h25.875V180.271z"/>
		<path fill="#231815" d="M719.451,182.285c0,15.666-4.33,41.126-40.42,41.126c-20.213,0-39.953-11.09-39.953-37.533V175.34h24.145
			v5.409c0,11.733,2.871,20.235,15.41,20.235c14.074,0,14.074-11.373,14.074-19.905v-81.78h26.744V182.285z"/>
	</g>
</g>
</svg>
