<?xml version="1.0" encoding="utf-8"?>
<!-- Generator: Adobe Illustrator 16.0.3, SVG Export Plug-In . SVG Version: 6.00 Build 0)  -->
<!DOCTYPE svg PUBLIC "-//W3C//DTD SVG 1.1//EN" "http://www.w3.org/Graphics/SVG/1.1/DTD/svg11.dtd">
<svg version="1.1" id="文字" xmlns="http://www.w3.org/2000/svg" xmlns:xlink="http://www.w3.org/1999/xlink" x="0px" y="0px"
	 width="720px" height="225px" viewBox="0 0 720 225" enable-background="new 0 0 720 225" xml:space="preserve">
<g>
	<g>
		<g>
			<path d="M180.859,42.407h33.476v5.839h-33.476V42.407z"/>
			<path d="M237.528,48.533h-3.97v-4.938h15.329v4.938c-0.69,1.625-1.549,3.717-3.821,6.529c2.415,1.406,4.609,2.019,5.951,2.412
				l-1.99,5.343c-1.546-0.544-4.291-1.556-7.609-4.046c-3.092,2.454-5.625,3.502-6.996,4.08l-2.412-4.401v0.94
				c0,2.197-1.23,3.35-3.327,3.35h-4.323l-0.894-5.114h3.638c0.652,0,0.833-0.071,0.833-0.904v-9.128
				c-0.725,0.117-1.005,0.154-1.41,0.222v8.115h-3.17v-7.79c-0.436,0.039-0.647,0.071-1.163,0.106
				c-0.4,9.447-2.122,12.946-2.951,14.496l-3.39-4.22c1.722-3.636,2.125-7.244,2.23-9.918c-0.172,0-0.967,0.071-1.477,0.071
				l-0.319-4.827c0.829-0.037,1.144-0.037,1.831-0.075V31.551h3.899c0.353-1.084,0.69-3.034,0.724-3.209l5.445,0.43
				c-0.511,1.373-0.544,1.513-1.088,2.779h4.909v11.032c0.137-0.037,0.824-0.144,0.967-0.176v4.433
				c-0.143,0.033-0.754,0.145-0.967,0.183v11.104c1.65-0.573,3.428-1.223,5.625-2.888c-2.056-2.381-2.884-4.251-3.36-5.371
				L237.528,48.533z M222.195,43.559c1.624-0.109,4.838-0.396,5.739-0.511v-6.81h-5.739V43.559z M223.819,42.617
				c-0.074-0.759-0.353-3.105-0.934-4.978l3.184-0.651c0.56,1.836,0.896,3.031,1.21,4.902L223.819,42.617z M245.632,29.492v6.847
				c0,0.65,0.196,0.65,0.991,0.65c0.419,0,0.572-0.14,0.687-0.977c0.033-0.176,0.137-1.364,0.137-2.412l3.75,1.224
				c-0.176,6.964-1.833,6.964-3.506,6.964h-4.075c-1.939,0-2.411-1.269-2.411-2.603V34.18h-2.479
				c-0.438,5.089-1.531,7.031-3.395,9.123l-3.218-4.113c0.548-0.646,1.339-1.616,1.703-3.022c0.075-0.364,0.604-2.49,0.604-4.257
				v-2.417L245.632,29.492L245.632,29.492z M238.868,48.533c0.352,0.791,1,2.024,2.335,3.5c1.443-1.661,1.842-2.523,2.269-3.5
				H238.868z"/>
			<path d="M262.744,62.785h-5.486V50.769c-1.481,1.265-2.776,2.172-3.833,2.892l-1.37-6.391c4.043-2.412,7.37-6.308,8.563-8.651
				h-7.912v-5.058h4.556v-4.939h5.486v4.939h3.675v5.055c-0.547,1.334-1.128,2.666-2.887,5.234c1.98,2.161,3.642,3.137,4.938,3.86
				l-2.706,5.153c-0.758-0.721-1.725-1.621-3.026-3.459v13.381H262.744z M273.453,28.621h5.625v8.952h7.034v5.554h-7.034v13.196
				h7.579v5.485h-21.473v-5.485h8.266V43.127h-6.484v-5.554h6.484v-8.952H273.453z"/>
			<path d="M290.085,29.668h31.44v33.117h-5.255V61.45h-20.854v1.335h-5.332V29.668z M303.173,51.89h3.937
				c0.759,0,0.83-0.149,0.83-0.72v-8.294H296v-4.688h11.939v-3.466h-12.52v21.602h8.4L303.173,51.89z M300.795,52.752
				c-0.688-1.627-2.494-5.192-3.977-7.031l4.011-2.627c1.547,1.908,3.164,4.396,4.326,6.779L300.795,52.752z M313.021,53.296
				c0,2.093-1.306,2.884-3.098,3.027h6.348V34.722h-3.25v3.463h2.67v4.688h-2.67V53.296z"/>
			<path d="M334.909,50.337c-1.722,3.789-4.392,9.02-7.246,12.334l-3.46-5.01c3.32-3.825,6.201-9.812,6.52-10.429L334.909,50.337z
				 M327.154,37.573c1.602,0.576,4.557,2.265,6.35,3.788l-3.127,4.499c-2.919-2.411-4.873-3.386-6.03-3.93L327.154,37.573z
				 M328.211,28.482c1.331,0.431,5.116,2.419,6.451,3.532l-3.252,4.544c-1.864-1.51-3.779-2.778-6.154-3.896L328.211,28.482z
				 M346.128,47.709c-1.071,2.988-2.234,5.913-3.569,8.796c0.544,0,7.031-0.438,8.018-0.509c-0.843-1.579-1.845-3.35-2.933-4.792
				l4.552-2.312c2.816,3.433,5.449,8.438,6.791,11.869l-5.1,2.418c-0.278-0.723-0.39-1.084-1.04-2.524
				c-4.832,0.643-13.709,1.223-18.654,1.405l-0.649-5.229c0.916-0.035,2.815-0.113,3.15-0.113c1.368-2.78,2.475-5.805,3.429-9.011
				h-5.821v-5.057h9.565v-4.615h-8.192v-5.12h8.192v-4.251h5.487v4.251h8.26v5.12h-8.26v4.615h9.473v5.057L346.128,47.709
				L346.128,47.709z"/>
			<path d="M375.051,28.666h5.859v5.583c0,1.846,0.49,7.438,3.308,13.17c3.112,6.24,9.122,9.09,11.341,10.137l-3.625,5.231
				c-6.416-3.578-11.535-9.128-13.945-16.921c-2.284,7.973-8.262,13.673-14.063,16.921l-3.664-5.123
				c5.414-2.384,9.289-5.848,11.838-10.961c1.842-3.722,2.951-8.337,2.951-12.451V28.666L375.051,28.666z"/>
		</g>
		<g>
			<path d="M179.925,112.815c2.254-5.406,2.888-17.411,2.888-22.544l7.579,0.359c0,3.245,0.086,16.782-3.255,27.873L179.925,112.815
				z M207.435,99.38c-0.547-1.628-1.095-2.981-2.888-7.035v65.841h-12.72V72.496h12.72v13.076l3.871-2.065
				c1.635,2.523,2.073,3.607,4.694,8.838v-2.798h18.486v-3.25h-20.827v-9.375h20.827V72.5h13.171v4.422h21.02v9.375h-21.02v3.25
				h19.309v7.571H244.77v3.518h22.729v9.657h-58.534v-9.657h22.639v-3.517h-18.487v-0.896L207.435,99.38z M263.716,113.27v35.533
				c0,4.065-0.264,9.383-8.741,9.383h-12.909l-2.075-10.375h8.212c2.165,0,2.254-0.538,2.254-2.252v-2.256h-24.622v14.883h-12.979
				V113.27H263.716z M225.833,122.378v3.52h24.622v-3.52H225.833z M225.833,132.757v3.42h24.622v-3.42H225.833z"/>
			<path d="M286.613,72.586h13.354v4.97h12.345v11.995h-12.349v5.048h14.593v11.636h-3.516c-0.635,3.071-1.071,5.146-1.796,8.119
				h4.958v12.093h-14.239v5.681h12.893v12.354h-12.893v13.081h-13.351v-13.081h-12.187v-12.354h12.188v-5.681h-13.984v-12.093h5.856
				c-0.264-2.434-1.072-6.129-1.616-8.119h-4.608V94.599h14.352v-5.052h-12.187V77.552h12.188L286.613,72.586L286.613,72.586z
				 M288.582,106.231c0.279,1.268,1.353,6.949,1.639,8.119h7.121c0.809-4.15,0.983-6.676,1.174-8.119H288.582L288.582,106.231z
				 M328.541,149.353v8.203h-12.54V74.848h39.693c0.086,6.315-0.716,21.277-1.896,24.708c-1.273,3.433-4.153,5.417-7.756,5.417
				h-12.085l-2.161-10.914h7.388c2.896,0,2.988-0.634,3.25-6.772h-13.893v20.746h27.702c-0.458,6.137-1.636,20.931-6.401,31.21
				c3.146,2.714,6.312,4.781,9.199,6.588l-6.602,11.901c-2.512-1.436-5.22-2.974-9.74-7.492c-3.233,3.794-5.771,6.058-8.021,7.858
				L328.541,149.353z M328.541,119.404v3.522l9.02-1.718c0.813,2.072,1.624,4.237,3.89,8.203c1.442-3.695,2.162-6.943,2.796-10.01
				h-15.705V119.404z M328.541,147.002c3.345-2.798,5.238-4.87,6.684-6.676c-1.353-2.252-4.876-8.207-6.684-16.868V147.002z"/>
			<path d="M360.548,113.813c4.682-7.396,9.831-16.954,10.819-41.589l12.715,0.729c-0.177,4.417-0.265,6.577-0.542,9.101h17.867
				c0,17.143-1.9,38.243-9.569,52.95c5.684,5.405,15.514,8.299,24.449,8.299h32.842l-2.799,13.081h-29.318
				c-19.662,0-29.667-8.753-32.205-11.188c-5.947,7.122-11.631,11.005-14.883,13.166l-8.206-12.356
				c3.798-2.526,9.214-6.218,14.699-12.985c-0.714-1.53-2.252-4.604-4.149-10.913c-1.882,3.156-2.688,4.425-3.779,5.947
				L360.548,113.813z M381.65,94.96c-0.549,2.522-1.268,6.224-2.441,10.19c1.637,8.749,3.343,13.716,4.148,16.06
				c2.357-5.596,4.694-12.988,5.236-26.25H381.65z M435.772,75.02v48.803c0,0.995,0,1.896,0.811,1.896c1.987,0,2.16,0,2.534-0.813
				c0.352-0.813,0.436-12.444,0.436-14.072l9.383,2.073c-0.18,11.633-1.257,18.036-1.446,19.125
				c-0.534,2.614-1.248,6.488-6.937,6.488h-9.928c-5.493,0-7.039-4.416-7.039-7.119V87.925h-6.581v10.551
				c0,5.683,0,25.977-9.832,40.684l-11.005-6.674c8.929-11.638,8.929-29.22,8.929-34.368V75.022h30.677L435.772,75.02L435.772,75.02
				z"/>
			<path d="M479.494,144.292c-4.962,1.984-20.392,6.5-26.7,7.854l-1.622-14.065c0.438-0.096,8.921-2.08,10.467-2.442v-19.845h-8.131
				v-12.446h8.131V89.093h-9.215V76.287h29.602v12.806h-7.407v14.254h6.771v12.442h-6.771v16.601
				c3.977-1.172,5.508-1.802,7.407-2.429l-0.638,13.162h21.742v-6.404h-18.677v-11.001h18.677v-6.138h-18.77V74.762h50.955v44.826
				h-19.384v6.138h20.299v11.001h-20.299v6.404h22.002v12.353h-58.439V144.292L479.494,144.292z M496.355,86.483v6.227h7.395v-6.227
				H496.355z M496.355,101.634v6.762h7.395v-6.762H496.355z M515.654,86.483v6.227h7.404v-6.227H515.654z M515.654,101.634v6.762
				h7.404v-6.762H515.654z"/>
			<path d="M553.975,85.761c-1.983-4.062-3.52-6.584-5.508-9.56l13.614-3.519c3.249,4.688,5.417,9.11,6.855,13.078h11.016
				c-1.441-3.878-2.356-5.592-5.046-10.639l13.692-3.158c2.172,4.054,4.966,10.094,5.863,13.797h8.207
				c2.889-5.146,4.874-11.723,5.416-13.437l14.51,3.156c-1.967,4.513-2.695,6.219-5.135,10.28h8.66v22.274h-11.454v4.871
				c-5.139,3.787-8.741,5.955-18.666,10.826h32.291v12.269h-35.636v12.9c0,5.497-3.252,9.291-8.756,9.291h-19.468l-2.256-13.076
				h12.981c2.429,0,3.252-0.274,3.252-3.429V136H542.41v-12.265h36.001v-4.515h3.521c3.236-1.257,6.035-2.615,8.39-4.769h-34.192
				v-6.413h-11.536V85.764h9.383L553.975,85.761L553.975,85.761z M612.682,97.576H558.12v4.96h54.562V97.576z"/>
			<path d="M651.548,102.438c-7.126,4.336-10.378,5.693-13.719,6.949l-6.854-13.709c22.013-8.656,31.388-16.234,36.716-23.72h16.044
				c3.884,4.602,13.083,14.79,36.266,23.543l-7.039,13.614c-2.709-1.17-7.031-3.061-13.437-6.938v5.493h-47.978L651.548,102.438
				L651.548,102.438z M703.396,158.904c-0.897-1.712-1.883-3.604-3.604-6.313c-15.338,2.168-45.995,3.435-62.233,3.882l-2.16-13.986
				c0.439,0.101,11.908,0.101,13.154,0.101c0.725-1.45,3.713-7.493,6.319-15.615h-20.104v-12.986h81.347v12.984h-18.665
				c4.064,4.427,10.101,11.008,18.943,25.173L703.396,158.904z M689.692,95.593c-7.845-5.867-11.726-10.193-14.069-12.716
				c-2.165,2.798-5.684,6.577-13.887,12.716H689.692z M695.287,126.978h-25.349c-3.249,7.581-4.322,9.921-7.119,15.608
				c10.638-0.096,20.383-0.096,29.393-0.989c-3.779-5.058-5.766-7.394-7.565-9.562L695.287,126.978z"/>
		</g>
	</g>
	<g>
		<g>
			<path d="M185.625,170.787v20.256h-4.609v-20.256H185.625z"/>
		</g>
		<g>
			<path d="M189.536,181.038c0-1.831-0.075-3.396-0.133-4.688h3.976l0.207,2.015h0.086c0.601-0.931,2.107-2.345,4.548-2.345
				c3.005,0,5.253,1.981,5.253,6.313v8.709h-4.563v-8.146c0-1.89-0.663-3.189-2.31-3.189c-1.265,0-2.014,0.879-2.329,1.718
				c-0.117,0.304-0.177,0.718-0.177,1.143v8.476h-4.56L189.536,181.038L189.536,181.038z"/>
		</g>
		<g>
			<path d="M207.652,191.043v-11.331h-1.917v-3.361h1.917v-0.575c0-1.769,0.544-3.73,1.868-4.926
				c1.148-1.084,2.733-1.472,4.064-1.472c1.013,0,1.796,0.117,2.423,0.304l-0.176,3.521c-0.397-0.133-0.866-0.218-1.472-0.218
				c-1.5,0-2.139,1.177-2.139,2.611v0.762h2.948v3.358h-2.917v11.334h-4.603v-0.007H207.652z"/>
		</g>
		<g>
			<path d="M231.612,183.527c0,5.388-3.813,7.849-7.756,7.849c-4.297,0-7.593-2.823-7.593-7.569c0-4.761,3.12-7.793,7.85-7.793
				C228.607,176.02,231.612,179.11,231.612,183.527z M220.968,183.682c0,2.53,1.059,4.424,3.02,4.424
				c1.768,0,2.913-1.771,2.913-4.424c0-2.188-0.857-4.416-2.913-4.416C221.775,179.266,220.968,181.521,220.968,183.682z"/>
			<path d="M234.432,181.19c0-2.168-0.061-3.577-0.117-4.841h3.95l0.146,2.698h0.111c0.75-2.127,2.569-3.028,3.976-3.028
				c0.407,0,0.633,0,0.959,0.06v4.329c-0.326-0.089-0.724-0.146-1.238-0.146c-1.675,0-2.827,0.895-3.12,2.314
				c-0.059,0.3-0.086,0.65-0.086,1.014v7.453h-4.578v-9.853H234.432z"/>
			<path d="M245.865,181.038c0-1.831-0.064-3.396-0.14-4.688h3.86l0.205,1.979h0.086c0.635-0.923,1.932-2.309,4.464-2.309
				c1.879,0,3.393,0.96,4.012,2.498h0.075c0.533-0.775,1.192-1.354,1.882-1.775c0.81-0.483,1.729-0.723,2.798-0.723
				c2.827,0,4.957,1.981,4.957,6.372v8.657h-4.443v-7.99c0-2.132-0.694-3.373-2.159-3.373c-1.066,0-1.812,0.723-2.107,1.602
				c-0.117,0.329-0.182,0.806-0.182,1.172v8.595h-4.455v-8.231c0-1.864-0.663-3.132-2.111-3.132c-1.161,0-1.851,0.908-2.129,1.662
				c-0.146,0.359-0.176,0.776-0.176,1.14v8.565h-4.444v-10.02H245.865z"/>
		</g>
		<g>
			<path d="M283.977,187.469c0,1.417,0.062,2.77,0.207,3.574h-4.122l-0.264-1.465h-0.086c-0.975,1.172-2.47,1.798-4.211,1.798
				c-2.975,0-4.753-2.161-4.753-4.505c0-3.819,3.435-5.654,8.624-5.617v-0.216c0-0.784-0.408-1.897-2.662-1.897
				c-1.521,0-3.105,0.509-4.063,1.113l-0.844-2.944c1.016-0.57,3.038-1.296,5.715-1.296c4.901,0,6.458,2.889,6.458,6.346V187.469z
				 M279.529,184.105c-2.411-0.028-4.286,0.538-4.286,2.312c0,1.176,0.795,1.743,1.813,1.743c1.148,0,2.071-0.75,2.368-1.682
				c0.075-0.237,0.101-0.513,0.101-0.782v-1.591H279.529z"/>
		</g>
		<g>
			<path d="M292.451,172.348v4.003h3.276v3.361h-3.276v5.325c0,1.771,0.421,2.589,1.792,2.589c0.637,0,0.919-0.033,1.354-0.128
				l0.029,3.457c-0.581,0.241-1.675,0.421-2.97,0.421c-1.475,0-2.712-0.538-3.436-1.285c-0.837-0.876-1.249-2.289-1.249-4.365
				v-6.018h-1.953v-3.357h1.954v-2.766L292.451,172.348z"/>
			<path d="M303.085,172.264c0,1.268-0.956,2.277-2.456,2.277c-1.463,0-2.415-1.011-2.384-2.277
				c-0.031-1.326,0.921-2.313,2.417-2.313C302.129,169.94,303.056,170.934,303.085,172.264z M298.361,191.043v-14.692h4.579v14.692
				H298.361z"/>
			<path d="M321.13,183.527c0,5.388-3.829,7.849-7.754,7.849c-4.298,0-7.608-2.823-7.608-7.569c0-4.761,3.12-7.793,7.845-7.793
				C318.113,176.02,321.13,179.11,321.13,183.527z M310.492,183.682c0,2.53,1.043,4.424,3.001,4.424
				c1.769,0,2.912-1.771,2.912-4.424c0-2.188-0.837-4.416-2.912-4.416C311.303,179.266,310.492,181.521,310.492,183.682z"/>
			<path d="M323.956,181.038c0-1.831-0.061-3.396-0.117-4.688h3.957l0.208,2.015h0.105c0.584-0.931,2.101-2.345,4.53-2.345
				c3.003,0,5.264,1.981,5.264,6.313v8.709h-4.573v-8.146c0-1.89-0.665-3.189-2.312-3.189c-1.267,0-2.018,0.879-2.326,1.718
				c-0.114,0.304-0.176,0.718-0.176,1.143v8.476h-4.563v-10.005H323.956z"/>
		</g>
		<g>
			<path d="M347.791,171.062c1.414-0.246,3.382-0.429,6.18-0.429c2.827,0,4.841,0.546,6.195,1.63c1.298,1.021,2.16,2.71,2.16,4.688
				c0,1.983-0.661,3.669-1.85,4.812c-1.579,1.465-3.885,2.132-6.595,2.132c-0.608,0-1.134-0.028-1.562-0.088v7.243h-4.532v-19.988
				H347.791z M352.324,180.262c0.396,0.084,0.861,0.117,1.528,0.117c2.446,0,3.946-1.23,3.946-3.308
				c0-1.871-1.294-2.978-3.578-2.978c-0.945,0-1.556,0.091-1.896,0.183V180.262z"/>
		</g>
		<g>
			<path d="M364.826,181.19c0-2.168-0.06-3.577-0.117-4.841h3.926l0.169,2.698h0.113c0.755-2.127,2.546-3.028,3.959-3.028
				c0.429,0,0.638,0,0.974,0.06v4.329c-0.336-0.089-0.717-0.146-1.237-0.146c-1.67,0-2.818,0.895-3.128,2.314
				c-0.064,0.3-0.091,0.65-0.091,1.014v7.453h-4.563v-9.853H364.826z"/>
		</g>
		<g>
			<path d="M390.52,183.527c0,5.388-3.812,7.849-7.756,7.849c-4.296,0-7.588-2.823-7.588-7.569c0-4.761,3.12-7.793,7.844-7.793
				C387.521,176.02,390.52,179.11,390.52,183.527z M379.885,183.682c0,2.53,1.059,4.424,3.018,4.424
				c1.771,0,2.912-1.771,2.912-4.424c0-2.188-0.835-4.416-2.912-4.416C380.691,179.266,379.885,181.521,379.885,183.682z"/>
		</g>
		<g>
			<path d="M404.465,190.684c-0.805,0.359-2.336,0.696-4.086,0.696c-4.743,0-7.786-2.915-7.786-7.544
				c0-4.296,2.959-7.815,8.415-7.815c1.205,0,2.535,0.209,3.49,0.567l-0.722,3.402c-0.526-0.241-1.348-0.45-2.542-0.45
				c-2.417,0-3.978,1.718-3.947,4.111c0,2.715,1.806,4.124,4.035,4.124c1.069,0,1.928-0.176,2.602-0.482L404.465,190.684z"/>
		</g>
		<g>
			<path d="M410.178,185.161c0.165,1.886,2.015,2.794,4.146,2.794c1.581,0,2.825-0.216,4.063-0.607l0.607,3.103
				c-1.506,0.594-3.344,0.927-5.332,0.927c-4.987,0-7.849-2.915-7.849-7.511c0-3.732,2.318-7.846,7.436-7.846
				c4.742,0,6.544,3.691,6.544,7.339c0,0.776-0.08,1.474-0.14,1.807h-9.479v-0.005H410.178z M415.568,182.03
				c0-1.109-0.489-2.981-2.592-2.981c-1.912,0-2.691,1.747-2.828,2.981H415.568z"/>
			<path d="M422.505,187.047c0.843,0.517,2.593,1.113,3.933,1.113c1.385,0,1.956-0.477,1.956-1.228c0-0.754-0.438-1.113-2.161-1.685
				c-3.03-1.021-4.211-2.673-4.182-4.396c0-2.758,2.358-4.834,5.998-4.834c1.699,0,3.229,0.39,4.146,0.839l-0.81,3.156
				c-0.663-0.362-1.931-0.838-3.197-0.838c-1.124,0-1.754,0.446-1.754,1.201c0,0.69,0.571,1.051,2.393,1.681
				c2.79,0.963,3.973,2.377,3.998,4.541c0,2.739-2.18,4.775-6.391,4.775c-1.912,0-3.641-0.45-4.739-1.051L422.505,187.047z"/>
			<path d="M435.549,187.047c0.854,0.517,2.586,1.113,3.944,1.113c1.381,0,1.96-0.477,1.96-1.228c0-0.754-0.462-1.113-2.168-1.685
				c-3.048-1.021-4.213-2.673-4.184-4.396c0-2.758,2.344-4.834,5.98-4.834c1.721,0,3.248,0.39,4.148,0.839l-0.813,3.156
				c-0.663-0.362-1.927-0.838-3.175-0.838c-1.125,0-1.755,0.446-1.755,1.201c0,0.69,0.57,1.051,2.373,1.681
				c2.794,0.963,3.97,2.377,3.998,4.541c0,2.739-2.159,4.775-6.371,4.775c-1.934,0-3.633-0.45-4.754-1.051L435.549,187.047z"/>
			<path d="M453.354,172.264c0,1.268-0.967,2.277-2.476,2.277c-1.443,0-2.396-1.011-2.365-2.277
				c-0.029-1.326,0.922-2.313,2.396-2.313C452.388,169.94,453.325,170.934,453.354,172.264z M448.627,191.043v-14.692h4.581v14.692
				H448.627z"/>
			<path d="M456.866,181.038c0-1.831-0.063-3.396-0.117-4.688h3.959l0.224,2.015h0.084c0.607-0.931,2.109-2.345,4.533-2.345
				c3.007,0,5.272,1.981,5.272,6.313v8.709h-4.58v-8.146c0-1.89-0.663-3.189-2.314-3.189c-1.26,0-2.011,0.879-2.304,1.718
				c-0.131,0.304-0.193,0.718-0.193,1.143v8.476h-4.563L456.866,181.038L456.866,181.038z"/>
			<path d="M488.4,188.915c0,2.823-0.569,5.142-2.232,6.609c-1.626,1.389-3.815,1.806-5.98,1.806c-1.93,0-3.977-0.392-5.292-1.14
				l0.905-3.457c0.927,0.547,2.545,1.106,4.272,1.106c2.161,0,3.81-1.169,3.81-3.875v-0.952h-0.06
				c-0.863,1.224-2.28,1.915-3.974,1.915c-3.644,0-6.215-2.939-6.215-7.181c0-4.726,3.063-7.729,6.669-7.729
				c2.019,0,3.281,0.868,4.032,2.076h0.059l0.146-1.746h3.977c-0.062,0.931-0.117,2.168-0.117,4.357V188.915L488.4,188.915z
				 M483.823,182.334c0-0.304-0.028-0.602-0.084-0.842c-0.318-1.201-1.204-2.021-2.472-2.021c-1.641,0-3.004,1.509-3.004,4.182
				c0,2.197,1.096,3.911,3.004,3.911c1.179,0,2.109-0.782,2.416-1.866c0.117-0.33,0.146-0.807,0.146-1.198v-2.164L483.823,182.334
				L483.823,182.334z"/>
		</g>
		<g>
			<path d="M498.436,186.333c1.233,0.63,3.119,1.26,5.075,1.26c2.109,0,3.227-0.871,3.227-2.197c0-1.26-0.971-1.98-3.396-2.855
				c-3.372-1.168-5.566-3.032-5.566-5.983c0-3.457,2.884-6.102,7.669-6.102c2.278,0,3.959,0.479,5.167,1.019l-1.014,3.698
				c-0.813-0.388-2.253-0.956-4.241-0.956c-1.984,0-2.943,0.901-2.943,1.952c0,1.297,1.135,1.868,3.758,2.855
				c3.574,1.322,5.251,3.184,5.251,6.043c0,3.398-2.607,6.313-8.167,6.313c-2.328,0-4.606-0.627-5.742-1.257L498.436,186.333z"/>
		</g>
		<g>
			<path d="M529.087,183.527c0,5.388-3.815,7.849-7.757,7.849c-4.295,0-7.592-2.823-7.592-7.569c0-4.761,3.12-7.793,7.845-7.793
				C526.084,176.02,529.087,179.11,529.087,183.527z M518.448,183.682c0,2.53,1.06,4.424,3.016,4.424
				c1.771,0,2.914-1.771,2.914-4.424c0-2.188-0.834-4.416-2.914-4.416C519.272,179.266,518.448,181.521,518.448,183.682z"/>
		</g>
		<g>
			<path d="M543.039,190.684c-0.816,0.359-2.345,0.696-4.079,0.696c-4.757,0-7.8-2.915-7.8-7.544c0-4.296,2.959-7.815,8.422-7.815
				c1.197,0,2.526,0.209,3.485,0.567l-0.721,3.402c-0.531-0.241-1.352-0.45-2.545-0.45c-2.418,0-3.979,1.718-3.948,4.111
				c0,2.715,1.807,4.124,4.036,4.124c1.068,0,1.926-0.176,2.614-0.482L543.039,190.684z"/>
			<path d="M550.287,172.264c0,1.268-0.972,2.277-2.477,2.277c-1.438,0-2.398-1.011-2.366-2.277
				c-0.032-1.326,0.928-2.313,2.396-2.313C549.316,169.94,550.254,170.934,550.287,172.264z M545.559,191.043v-14.692h4.567v14.692
				H545.559z"/>
			<path d="M557.318,185.161c0.146,1.886,2.003,2.794,4.148,2.794c1.561,0,2.828-0.216,4.051-0.607l0.597,3.103
				c-1.497,0.594-3.336,0.927-5.31,0.927c-5.003,0-7.859-2.915-7.859-7.511c0-3.732,2.326-7.846,7.432-7.846
				c4.753,0,6.556,3.691,6.556,7.339c0,0.776-0.092,1.474-0.154,1.807h-9.459L557.318,185.161L557.318,185.161z M562.697,182.03
				c0-1.109-0.476-2.981-2.577-2.981c-1.935,0-2.718,1.747-2.834,2.981H562.697z"/>
		</g>
		<g>
			<path d="M574.775,172.348v4.003h3.273v3.361h-3.273v5.325c0,1.771,0.418,2.589,1.802,2.589c0.639,0,0.904-0.033,1.354-0.128
				l0.029,3.457c-0.601,0.241-1.678,0.421-2.971,0.421c-1.476,0-2.714-0.538-3.435-1.285c-0.839-0.876-1.265-2.289-1.265-4.365
				v-6.018h-1.954v-3.357h1.954v-2.766L574.775,172.348z"/>
		</g>
		<g>
			<path d="M584.275,176.351l2.197,7.21c0.233,0.876,0.545,1.96,0.714,2.736h0.091c0.224-0.776,0.455-1.89,0.667-2.736l1.802-7.21
				h4.907l-3.432,9.675c-2.105,5.842-3.52,8.183-5.183,9.661c-1.589,1.385-3.263,1.86-4.417,2.008l-0.959-3.876
				c0.575-0.092,1.297-0.365,1.992-0.782c0.688-0.363,1.443-1.084,1.879-1.839c0.164-0.213,0.252-0.446,0.252-0.659
				c0-0.146-0.028-0.389-0.227-0.754l-5.369-13.434H584.275L584.275,176.351z"/>
			<path d="M617.163,183.527c0,5.388-3.825,7.849-7.756,7.849c-4.296,0-7.605-2.823-7.605-7.569c0-4.761,3.12-7.793,7.845-7.793
				C614.15,176.02,617.163,179.11,617.163,183.527z M606.525,183.682c0,2.53,1.041,4.424,3,4.424c1.77,0,2.911-1.771,2.911-4.424
				c0-2.188-0.839-4.416-2.911-4.416C607.331,179.266,606.525,181.521,606.525,183.682z"/>
			<path d="M620.486,191.043v-11.331h-1.912v-3.361h1.912v-0.575c0-1.769,0.549-3.73,1.867-4.926
				c1.157-1.084,2.739-1.472,4.063-1.472c1.02,0,1.796,0.117,2.433,0.304l-0.184,3.521c-0.381-0.133-0.867-0.218-1.472-0.218
				c-1.502,0-2.132,1.177-2.132,2.611v0.762h2.94v3.358h-2.911v11.334h-4.606L620.486,191.043L620.486,191.043z"/>
		</g>
		<g>
			<path d="M640.422,170.787h4.569v12.803c0,5.783-2.768,7.79-7.221,7.79c-1.037,0-2.418-0.176-3.333-0.48l0.513-3.701
				c0.63,0.213,1.443,0.365,2.345,0.365c1.93,0,3.127-0.871,3.127-4.034V170.787z"/>
		</g>
		<g>
			<path d="M660.776,187.469c0,1.417,0.06,2.77,0.205,3.574h-4.116l-0.268-1.465h-0.092c-0.968,1.172-2.465,1.798-4.203,1.798
				c-2.988,0-4.754-2.161-4.754-4.505c0-3.819,3.424-5.654,8.621-5.617v-0.216c0-0.784-0.41-1.897-2.683-1.897
				c-1.494,0-3.09,0.509-4.043,1.113l-0.855-2.944c1.024-0.57,3.047-1.296,5.728-1.296c4.9,0,6.46,2.889,6.46,6.346V187.469
				L660.776,187.469z M656.316,184.105c-2.402-0.028-4.267,0.538-4.267,2.312c0,1.176,0.779,1.743,1.806,1.743
				c1.153,0,2.076-0.75,2.373-1.682c0.059-0.237,0.088-0.513,0.088-0.782V184.105L656.316,184.105z"/>
			<path d="M664.38,181.283c0-1.935-0.06-3.585-0.117-4.934h3.962l0.221,2.036h0.06c1.075-1.557,2.765-2.366,4.902-2.366
				c3.204,0,6.095,2.798,6.095,7.485c0,5.347-3.385,7.874-6.67,7.874c-1.778,0-3.159-0.722-3.829-1.678h-0.06v7.306h-4.56v-15.724
				H664.38z M668.939,184.735c0,0.366,0.033,0.692,0.103,0.961c0.297,1.236,1.345,2.168,2.666,2.168
				c1.988,0,3.164-1.652,3.164-4.146c0-2.344-1.059-4.124-3.103-4.124c-1.281,0-2.428,0.967-2.729,2.314
				c-0.076,0.241-0.103,0.55-0.103,0.819L668.939,184.735L668.939,184.735z"/>
			<path d="M694.614,187.469c0,1.417,0.063,2.77,0.212,3.574h-4.123l-0.264-1.465h-0.088c-0.975,1.172-2.469,1.798-4.211,1.798
				c-2.967,0-4.75-2.161-4.75-4.505c0-3.819,3.428-5.654,8.624-5.617v-0.216c0-0.784-0.417-1.897-2.662-1.897
				c-1.521,0-3.109,0.509-4.065,1.113l-0.838-2.944c1.015-0.57,3.028-1.296,5.705-1.296c4.907,0,6.46,2.889,6.46,6.346V187.469
				L694.614,187.469z M690.176,184.105c-2.417-0.028-4.271,0.538-4.271,2.312c0,1.176,0.779,1.743,1.794,1.743
				c1.149,0,2.073-0.75,2.373-1.682c0.073-0.237,0.1-0.513,0.1-0.782v-1.591H690.176z"/>
			<path d="M698.225,181.038c0-1.831-0.065-3.396-0.12-4.688h3.958l0.221,2.015h0.088c0.604-0.931,2.109-2.345,4.533-2.345
				c3.019,0,5.271,1.981,5.271,6.313v8.709h-4.581v-8.146c0-1.89-0.659-3.189-2.305-3.189c-1.271,0-2.018,0.879-2.313,1.718
				c-0.113,0.304-0.176,0.718-0.176,1.143v8.476h-4.574L698.225,181.038L698.225,181.038z"/>
		</g>
	</g>
	<g>
		<rect x="0" y="27.306" width="163.376" height="163.377"/>
		<g>
			<rect x="6.127" y="32.739" fill="#FFFFFF" width="27.354" height="152.495"/>
			<path fill="#FFFFFF" d="M42.417,32.75v24.161v69.87v24.836v33.617h23.361v-33.618h8.468h15.409h5.966V32.75H42.417z
				 M65.779,126.78V56.91h8.468v69.87H65.779z"/>
			<polygon fill="#FFFFFF" points="157.106,32.739 104.048,32.739 104.048,162.343 74.246,162.343 74.246,185.233 130.388,185.233 
				130.388,58.086 157.106,58.086 			"/>
		</g>
	</g>
</g>
</svg>
