<svg id="レイヤー_1" data-name="レイヤー 1" xmlns="http://www.w3.org/2000/svg" viewBox="0 0 394.35 154.07"><defs><style>.cls-1{fill:#fff;}.cls-2{fill:#1400c8;}</style></defs><rect class="cls-1" width="394.35" height="154.07"/><path class="cls-2" d="M447.74,309.06h-4.41V286.22h4.41Z" transform="translate(-224.61 -221.69)"/><polygon class="cls-2" points="130.55 68.68 130.55 64.53 114.37 64.53 114.37 64.53 114.37 87.38 114.37 87.38 130.55 87.38 130.55 83.23 118.78 83.23 118.78 77.84 129.47 77.84 129.47 73.69 118.78 73.69 118.78 68.68 130.55 68.68"/><path class="cls-2" d="M524.36,309.06V286.22h4.84c3.22,0,6.5.07,9.16,2.55,2.42,2.25,3.4,5.74,3.4,8.87a12.18,12.18,0,0,1-3.4,8.87c-2.66,2.48-5.94,2.55-9.16,2.55Zm4.4-4.2h1.48c2,0,3.82-.1,5.3-1.8a9.34,9.34,0,0,0,0-10.83c-1.48-1.7-3.32-1.8-5.3-1.8h-1.48Z" transform="translate(-224.61 -221.69)"/><path class="cls-2" d="M515.59,299.52a8.17,8.17,0,0,0,0-11.63c-1.9-1.62-4.25-1.67-6.54-1.67h-8.22v22.84h4.37V301.2h1.2l5.63,7.86h5.49l-5.9-8A7,7,0,0,0,515.59,299.52Zm-10.39-9.16h4.69a3.47,3.47,0,0,1,2.78.86,4.13,4.13,0,0,1,0,5.17,3.47,3.47,0,0,1-2.78.86H505.2Z" transform="translate(-224.61 -221.69)"/><path class="cls-2" d="M547,308v-4.73a13,13,0,0,0,7,2.07c2.31,0,3.61-.85,3.93-2.25.27-1.13.19-2.69-4.2-3.39-6-.95-7.42-4-7.42-6.8,0-3.67,3-6.39,7-6.89a15.93,15.93,0,0,1,7.37,1v4.47A13.14,13.14,0,0,0,555,290c-2.36,0-4,1.13-4,2.91,0,2.16,2.76,2.45,5,2.89,3.45.7,6.74,2.25,6.74,6.56s-3.77,6.86-7.38,7A17.53,17.53,0,0,1,547,308Z" transform="translate(-224.61 -221.69)"/><path class="cls-2" d="M384.91,309.07h4.71l1-2.46h9.6l1,2.46H406l-9.55-22.85h-2Zm13.77-6.28h-6.54l3.28-8.14Z" transform="translate(-224.61 -221.69)"/><path class="cls-2" d="M475.65,309.07h4.7l1-2.46h9.6l1,2.46h4.77l-9.55-22.85h-2Zm13.76-6.28h-6.54l3.28-8.14Z" transform="translate(-224.61 -221.69)"/><polygon class="cls-2" points="246.83 68.03 246.84 68.03 246.84 64.53 230.27 64.53 230.27 68.67 241.15 68.67 230.27 83.88 230.27 83.88 230.27 83.88 230.27 87.38 246.84 87.38 246.84 83.24 235.94 83.24 246.83 68.03"/><polygon class="cls-2" points="191.07 87.38 193.45 87.38 197.68 77.27 201.9 87.38 204.29 87.38 213.9 64.54 209.09 64.54 203.09 79.5 197.04 64.54 192.36 64.54 195.41 71.84 192.32 79.52 186.31 64.54 181.46 64.54 191.07 87.38"/><polygon class="cls-2" points="149.27 75.96 156.61 64.53 151.25 64.53 146.48 72.24 141.72 64.53 136.36 64.53 143.7 75.96 136.37 87.38 141.72 87.38 146.48 79.68 151.25 87.38 156.6 87.38 149.27 75.96"/><path class="cls-2" d="M281.58,275l-.08.18c-3.05,7.11-3.05,7.63,0,14.74l13,30.4.08-.18c3.05-7.11,3.05-7.63,0-14.74Z" transform="translate(-224.61 -221.69)"/><path class="cls-2" d="M294.53,275l-.08.18c-3.05,7.11-3.05,7.63,0,14.74l13,30.4.08-.18c3.05-7.11,3.05-7.63,0-14.74Z" transform="translate(-224.61 -221.69)"/><path class="cls-2" d="M307.48,275l-.08.18c-3,7.11-3,7.63,0,14.74l13,30.4.08-.18c3.05-7.11,3.05-7.63,0-14.74Z" transform="translate(-224.61 -221.69)"/><path class="cls-2" d="M320.51,289.9c3.05-7.11,3.05-7.63,0-14.74l-.08-.18-3.24,7.55,3.12,7.84Z" transform="translate(-224.61 -221.69)"/><path class="cls-2" d="M281.5,305.38c-3.05,7.11-3.05,7.63,0,14.74l.08.18,3.24-7.55-3.12-7.84Z" transform="translate(-224.61 -221.69)"/><path class="cls-2" d="M459.45,303.37" transform="translate(-224.61 -221.69)"/></svg>