<svg id="レイヤー_1" data-name="レイヤー 1" xmlns="http://www.w3.org/2000/svg" viewBox="0 0 283.46 45.33"><defs><style>.cls-1{fill:#1400c8;}</style></defs><path class="cls-1" d="M447.74,309.06h-4.41V286.22h4.41Z" transform="translate(-279.21 -274.98)"/><polygon class="cls-1" points="75.94 15.39 75.94 11.24 59.76 11.24 59.76 11.24 59.76 34.08 59.76 34.08 75.94 34.08 75.94 29.94 64.17 29.94 64.17 24.55 74.86 24.55 74.86 20.41 64.17 20.41 64.17 15.39 75.94 15.39"/><path class="cls-1" d="M524.36,309.06V286.22h4.84c3.22,0,6.5.07,9.16,2.55,2.42,2.25,3.4,5.74,3.4,8.87a12.18,12.18,0,0,1-3.4,8.87c-2.66,2.48-5.94,2.55-9.16,2.55Zm4.4-4.2h1.48c2,0,3.82-.1,5.3-1.8a9.34,9.34,0,0,0,0-10.83c-1.48-1.7-3.32-1.8-5.3-1.8h-1.48Z" transform="translate(-279.21 -274.98)"/><path class="cls-1" d="M515.59,299.52a8.17,8.17,0,0,0,0-11.63c-1.9-1.62-4.25-1.67-6.54-1.67h-8.22v22.84h4.37V301.2h1.2l5.63,7.86h5.49l-5.9-8A7,7,0,0,0,515.59,299.52Zm-10.39-9.16h4.69a3.47,3.47,0,0,1,2.78.86,4.13,4.13,0,0,1,0,5.17,3.47,3.47,0,0,1-2.78.86H505.2Z" transform="translate(-279.21 -274.98)"/><path class="cls-1" d="M547,308v-4.73a13,13,0,0,0,7,2.07c2.31,0,3.61-.85,3.93-2.25.27-1.13.19-2.69-4.2-3.39-6-.95-7.42-4-7.42-6.8,0-3.67,3-6.39,7-6.89a15.93,15.93,0,0,1,7.37,1v4.47A13.14,13.14,0,0,0,555,290c-2.36,0-4,1.13-4,2.91,0,2.16,2.76,2.45,5,2.89,3.45.7,6.74,2.25,6.74,6.56s-3.77,6.86-7.38,7A17.53,17.53,0,0,1,547,308Z" transform="translate(-279.21 -274.98)"/><path class="cls-1" d="M384.91,309.07h4.71l1-2.46h9.6l1,2.46H406l-9.55-22.85h-2Zm13.77-6.28h-6.54l3.28-8.14Z" transform="translate(-279.21 -274.98)"/><path class="cls-1" d="M475.65,309.07h4.7l1-2.46h9.6l1,2.46h4.77l-9.55-22.85h-2Zm13.76-6.28h-6.54l3.28-8.14Z" transform="translate(-279.21 -274.98)"/><polygon class="cls-1" points="192.22 14.74 192.23 14.74 192.23 11.24 175.66 11.24 175.66 15.38 186.55 15.38 175.66 30.59 175.66 30.59 175.66 30.59 175.66 34.09 192.23 34.09 192.23 29.95 181.34 29.95 192.22 14.74"/><polygon class="cls-1" points="136.46 34.09 138.84 34.09 143.07 23.98 147.29 34.09 149.68 34.09 159.29 11.25 154.48 11.25 148.48 26.21 142.43 11.25 137.76 11.25 140.8 18.55 137.71 26.23 131.71 11.25 126.86 11.25 136.46 34.09"/><polygon class="cls-1" points="94.66 22.67 102 11.24 96.64 11.24 91.88 18.95 87.11 11.24 81.75 11.24 89.09 22.67 81.76 34.09 87.11 34.09 91.88 26.39 96.64 34.09 102 34.09 94.66 22.67"/><path class="cls-1" d="M281.58,275l-.08.18c-3.05,7.11-3.05,7.63,0,14.74l13,30.4.08-.18c3.05-7.11,3.05-7.63,0-14.74Z" transform="translate(-279.21 -274.98)"/><path class="cls-1" d="M294.53,275l-.08.18c-3.05,7.11-3.05,7.63,0,14.74l13,30.4.08-.18c3.05-7.11,3.05-7.63,0-14.74Z" transform="translate(-279.21 -274.98)"/><path class="cls-1" d="M307.48,275l-.08.18c-3,7.11-3,7.63,0,14.74l13,30.4.08-.18c3.05-7.11,3.05-7.63,0-14.74Z" transform="translate(-279.21 -274.98)"/><path class="cls-1" d="M320.51,289.9c3.05-7.11,3.05-7.63,0-14.74l-.08-.18-3.24,7.55,3.12,7.84Z" transform="translate(-279.21 -274.98)"/><path class="cls-1" d="M281.5,305.38c-3.05,7.11-3.05,7.63,0,14.74l.08.18,3.24-7.55-3.12-7.84Z" transform="translate(-279.21 -274.98)"/><path class="cls-1" d="M459.45,303.37" transform="translate(-279.21 -274.98)"/></svg>