<?xml version="1.0" encoding="UTF-8" standalone="no"?>
<svg
   xmlns:dc="http://purl.org/dc/elements/1.1/"
   xmlns:cc="http://creativecommons.org/ns#"
   xmlns:rdf="http://www.w3.org/1999/02/22-rdf-syntax-ns#"
   xmlns:svg="http://www.w3.org/2000/svg"
   xmlns="http://www.w3.org/2000/svg"
   viewBox="0 0 495.78668 307.29333"
   height="307.29333"
   width="495.78668"
   xml:space="preserve"
   id="svg2"
   version="1.1"><metadata
     id="metadata8"><rdf:RDF><cc:Work
         rdf:about=""><dc:format>image/svg+xml</dc:format><dc:type
           rdf:resource="http://purl.org/dc/dcmitype/StillImage" /></cc:Work></rdf:RDF></metadata><defs
     id="defs6" /><g
     transform="matrix(1.3333333,0,0,-1.3333333,0,307.29333)"
     id="g10"><g
       transform="scale(0.1)"
       id="g12"><path
         id="path14"
         style="fill:#ff0000;fill-opacity:1;fill-rule:nonzero;stroke:none"
         d="m 1603.22,1671.61 c -21.49,19.03 -56.17,30.42 -90.47,30.53 -82.11,0.23 -149.05,-64.52 -149.31,-148.15 -0.23,-82.11 67.2,-147.19 149.31,-147.42 46.17,-0.14 86.13,18.49 113.5,51.44 v 81.54 c -14.54,-25.4 -43.97,-57.71 -70.53,-68.78 -13.34,-5.56 -27.09,-9.09 -42.97,-9.09 -51.25,0 -93.49,39.79 -93.49,92.31 0,48.39 38.9,93.16 93.49,93 25.59,-0.08 48.59,-10.65 65.59,-27.2 17.59,-17.11 45.02,-52.72 58.1,-66.8 33.38,-35.92 81.35,-58.42 134.24,-58.58 101.35,-0.28 183.7,81.8 183.7,182.96 0,101.34 -82.5,185.46 -183.7,185.46 -58.92,0 -110.72,-30.69 -144.43,-73.75 v -110.15 c 25.66,69.91 71.85,125.7 144.43,125.7 69.71,0 126.23,-57.57 126.02,-127.26 -0.2,-69.71 -56.31,-126.06 -126.02,-125.86 -30.99,0.09 -59.89,11.34 -81.8,29.94 -27.22,21.35 -57.39,66.37 -85.66,90.16" /><path
         id="path16"
         style="fill:#ff0000;fill-opacity:1;fill-rule:nonzero;stroke:none"
         d="m 398.656,1365.55 h 405.817 v -113.03 c 0,0 -20.782,44.55 -64.735,44.62 H 551.93 V 1102.13 H 755.543 V 998.75 c 0,0 -6.535,32.94 -55.684,33.05 H 551.93 V 765.332 c -0.09,-39.305 42.554,-62.578 42.554,-62.578 H 401.313 c 0,0 40.546,20.461 40.546,62.578 v 530.738 c 0.09,44.54 -43.203,69.48 -43.203,69.48" /><path
         id="path18"
         style="fill:#ff0000;fill-opacity:1;fill-rule:nonzero;stroke:none"
         d="m 1418.83,1365.29 h 206.48 c 0,0 -46.26,-21.91 -46.26,-57.68 V 685.871 c 0,-210.187 -210.73,-244.601 -221.71,-244.016 17.96,11.543 105.49,86.114 105.82,244.016 v 621.739 c 0.08,33.68 -44.33,57.68 -44.33,57.68" /><path
         id="path20"
         style="fill:#ff0000;fill-opacity:1;fill-rule:nonzero;stroke:none"
         d="m 1654.39,1365.37 h 207.06 c 0,0 -45.98,-22.07 -45.98,-58.62 V 765.168 c 0,-38.742 45.98,-62.93 45.98,-62.93 h -207.06 c 0,0 45.98,24 45.98,62.93 v 541.582 c 0,36.55 -45.98,58.62 -45.98,58.62" /><path
         id="path22"
         style="fill:#ff0000;fill-opacity:1;fill-rule:nonzero;stroke:none"
         d="m 1902.91,1365.43 h 455.71 l -38.68,-120.39 c 0,0 -11.6,50.59 -55.55,50.57 h -94.64 V 765.254 c 0.01,-33.543 44.51,-62.625 44.51,-62.625 h -202.87 c 0,0 43.99,26.191 43.97,62.625 v 530.356 h -114.14 c -32.38,-0.03 -78.74,-60.65 -78.74,-60.65 l 40.43,130.47" /><path
         id="path24"
         style="fill:#ff0000;fill-opacity:1;fill-rule:nonzero;stroke:none"
         d="m 3119.71,1365.37 h 199.51 c 0,0 -42.66,-22.62 -42.71,-58.46 V 905.559 c -0.22,-163.086 -135.39,-213.274 -229.06,-213.274 -93.11,0 -239.06,50.774 -238.86,213.274 v 401.351 c 0.05,35.84 -43.96,58.46 -43.96,58.46 h 205.3 c 0,0 -45.72,-21.98 -45.72,-58.46 V 905.559 c 0,-85.539 56.73,-141.555 123.24,-141.555 66.4,0 117.18,58.273 117.28,141.555 v 401.351 c 0.04,35.84 -45.02,58.46 -45.02,58.46" /><path
         id="path26"
         style="fill:#ff0000;fill-opacity:1;fill-rule:nonzero;stroke:none"
         d="m 1179.7,1365.37 h 203.23 c 0,0 -43.2,-23.55 -43.2,-59.16 0,-0.17 -0.04,-400.339 -0.04,-400.339 0,-163.82 -141.58,-215.332 -236.33,-215.332 -93.1,0 -238.926,52.293 -238.926,215.332 l -0.196,400.339 c 0,35.8 -41.484,59.16 -41.484,59.16 h 205.296 c 0,0 -47.464,-23.38 -47.464,-59.16 l -0.195,-400.339 c 0,-84.805 56.469,-143.32 122.969,-143.633 66.51,-0.312 119.87,59.657 119.87,143.633 l 0.27,400.339 c 0,35.86 -43.8,59.16 -43.8,59.16" /><path
         id="path28"
         style="fill:#ff0000;fill-opacity:1;fill-rule:nonzero;stroke:none"
         d="m 2703.57,1259.33 c 0,0 -28.77,50.42 -112.03,50.65 -83.28,0.26 -128.54,-43.55 -128.7,-100.24 -0.2,-64.19 48.05,-88.47 122.82,-124.35 71.04,-34.11 177.89,-81.28 177.53,-199.831 -0.31,-106.407 -94.6,-195.274 -263.71,-195.274 -52.04,0.156 -123.95,17.149 -123.95,17.149 l -38.72,127.343 c 35.75,-34.804 99.27,-72.207 164.61,-72.207 67.57,0 148.38,41.793 148.38,108.868 0,129.592 -301.5,107.91 -301.5,324.772 0,74.59 52.02,182.64 231.87,182.64 58.41,0 123.48,-17.15 123.48,-17.15 l -0.08,-102.37" /></g></g></svg>