<svg width="390" height="191" viewBox="0 0 390 191" fill="none" xmlns="http://www.w3.org/2000/svg">
<path d="M160.763 26.412C157.897 23.8747 153.273 22.356 148.7 22.3413C137.752 22.3107 128.827 30.944 128.792 42.0947C128.761 53.0427 137.752 61.72 148.7 61.7507C154.856 61.7693 160.184 59.2853 163.833 54.892V44.02C161.895 47.4067 157.971 51.7147 154.429 53.1907C152.651 53.932 150.817 54.4027 148.7 54.4027C141.867 54.4027 136.235 49.0973 136.235 42.0947C136.235 35.6427 141.421 29.6733 148.7 29.6947C152.112 29.7053 155.179 31.1147 157.445 33.3213C159.791 35.6027 163.448 40.3507 165.192 42.228C169.643 47.0173 176.039 50.0173 183.091 50.0387C196.604 50.076 207.584 39.132 207.584 25.644C207.584 12.132 196.584 0.916008 183.091 0.916008C175.235 0.916008 168.328 5.00801 163.833 10.7493V25.436C167.255 16.1147 173.413 8.676 183.091 8.676C192.385 8.676 199.921 16.352 199.893 25.644C199.867 34.9387 192.385 42.452 183.091 42.4253C178.959 42.4133 175.105 40.9133 172.184 38.4333C168.555 35.5867 164.532 29.584 160.763 26.412Z" fill="#FF0000"/>
<path d="M0.154144 67.22H54.2631V82.2907C54.2631 82.2907 51.4921 76.3507 45.6317 76.3413H20.5907V102.343H47.7391V116.127C47.7391 116.127 46.8677 111.735 40.3145 111.72H20.5907V147.249C20.5787 152.49 26.2645 155.593 26.2645 155.593H0.508409C0.508409 155.593 5.91454 152.865 5.91454 147.249V76.484C5.92654 70.5453 0.154144 67.22 0.154144 67.22Z" fill="#FF0000"/>
<path d="M136.177 67.2547H163.708C163.708 67.2547 157.54 70.176 157.54 74.9453V157.844C157.54 185.869 129.443 190.457 127.979 190.379C130.373 188.84 142.044 178.897 142.088 157.844V74.9453C142.099 70.4547 136.177 67.2547 136.177 67.2547Z" fill="#FF0000"/>
<path d="M167.585 67.244H195.193C195.193 67.244 189.063 70.1867 189.063 75.06V147.271C189.063 152.437 195.193 155.662 195.193 155.662H167.585C167.585 155.662 173.716 152.462 173.716 147.271V75.06C173.716 70.1867 167.585 67.244 167.585 67.244Z" fill="#FF0000"/>
<path d="M200.721 67.236H261.483L256.325 83.288C256.325 83.288 254.779 76.5427 248.919 76.5453H236.3V147.259C236.301 151.732 242.235 155.609 242.235 155.609H215.185C215.185 155.609 221.051 152.117 221.048 147.259V76.5453H205.829C201.512 76.5493 195.331 84.632 195.331 84.632L200.721 67.236Z" fill="#FF0000"/>
<path d="M362.961 67.244H389.563C389.563 67.244 383.875 70.26 383.868 75.0387V128.552C383.839 150.297 365.816 156.989 353.327 156.989C340.912 156.989 321.452 150.219 321.479 128.552V75.0387C321.485 70.26 315.617 67.244 315.617 67.244H342.991C342.991 67.244 336.895 70.1747 336.895 75.0387V128.552C336.895 139.957 344.459 147.426 353.327 147.426C362.18 147.426 368.951 139.656 368.964 128.552V75.0387C368.969 70.26 362.961 67.244 362.961 67.244Z" fill="#FF0000"/>
<path d="M104.293 67.244H131.391C131.391 67.244 125.631 70.384 125.631 75.132C125.631 75.1547 125.625 128.511 125.625 128.511C125.625 150.353 106.748 157.221 94.1147 157.221C81.7014 157.221 62.2579 150.249 62.2579 128.511L62.2318 75.132C62.2318 70.3587 56.7006 67.244 56.7006 67.244H84.0734C84.0734 67.244 77.7448 70.3613 77.7448 75.132L77.7188 128.511C77.7188 139.818 85.248 147.62 94.1147 147.662C102.983 147.703 110.097 139.707 110.097 128.511L110.133 75.132C110.133 70.3507 104.293 67.244 104.293 67.244Z" fill="#FF0000"/>
<path d="M307.476 81.3827C307.476 81.3827 303.64 74.66 292.539 74.6293C281.435 74.5947 275.4 80.436 275.379 87.9947C275.352 96.5533 281.785 99.7907 291.755 104.575C301.227 109.123 315.473 115.412 315.425 131.219C315.384 145.406 302.812 157.255 280.264 157.255C273.325 157.235 263.737 154.969 263.737 154.969L258.575 137.99C263.341 142.63 271.811 147.617 280.523 147.617C289.532 147.617 300.307 142.045 300.307 133.102C300.307 115.823 260.107 118.714 260.107 89.7987C260.107 79.8533 267.043 65.4467 291.023 65.4467C298.811 65.4467 307.487 67.7333 307.487 67.7333L307.476 81.3827Z" fill="#FF0000"/>
</svg>
