<?xml version="1.0" encoding="UTF-8"?><svg id="_レイヤー_1" xmlns="http://www.w3.org/2000/svg" viewBox="0 0 290.3 90.52"><g><polygon points="80.4 66.15 44.22 45.26 56.28 38.3 68.34 45.26 68.34 31.33 80.4 24.37 80.4 66.15" fill="#8c8c8c"/><polygon points="42.21 90.52 42.21 48.74 54.27 55.7 54.27 69.63 66.33 62.66 78.39 69.63 42.21 90.52" fill="#191919"/><polygon points="2.01 69.63 38.19 48.74 38.19 62.66 26.13 69.63 38.19 76.59 38.19 90.52 2.01 69.63" fill="#8c8c8c"/><polygon points="78.39 20.89 42.21 41.78 42.21 27.85 54.27 20.89 42.21 13.93 42.21 0 78.39 20.89" fill="#191919"/><polygon points="0 24.37 36.18 45.26 24.12 52.22 12.06 45.26 12.06 59.18 0 66.15 0 24.37" fill="#191919"/><polygon points="38.19 0 38.19 41.78 26.13 34.81 26.13 20.89 14.07 27.85 2.01 20.89 38.19 0" fill="#8c8c8c"/></g><g><polygon points="118.88 65.27 118.88 61.74 103.82 61.74 103.82 65.27 109.3 65.27 109.3 79.67 113.39 79.67 113.39 65.27 118.88 65.27" fill="#191919"/><path d="M127.49,67.22c-1-.56-2.17-.85-3.51-.85s-2.53,.28-3.53,.85c-1.01,.57-1.79,1.37-2.33,2.39-.54,1.03-.82,2.22-.82,3.58s.28,2.59,.83,3.61c.55,1.02,1.33,1.8,2.35,2.35,1.01,.54,2.2,.82,3.55,.82,1.1,0,2.08-.18,2.95-.53,.87-.35,1.59-.86,2.16-1.51,.57-.65,.97-1.43,1.2-2.33h-3.53c-.12,.36-.3,.66-.55,.91-.24,.25-.55,.45-.91,.58-.36,.14-.78,.2-1.25,.2-.67,0-1.24-.13-1.72-.39-.48-.26-.84-.65-1.09-1.16-.2-.42-.3-.95-.34-1.53h9.62c.02-.21,.03-.41,.04-.59,0-.18,.01-.35,.01-.5,0-1.33-.27-2.51-.81-3.53-.54-1.02-1.31-1.81-2.31-2.37Zm-5.18,2.3c.45-.28,1-.41,1.64-.41s1.18,.14,1.62,.41c.44,.28,.78,.66,1,1.15,.16,.36,.25,.78,.3,1.23h-5.89c.06-.42,.15-.81,.29-1.14,.24-.55,.59-.97,1.04-1.24Z" fill="#191919"/><path d="M137.12,69.8c.42-.28,.93-.41,1.53-.41,.45,0,.85,.08,1.21,.23,.36,.16,.66,.39,.91,.71,.25,.32,.42,.72,.52,1.21h3.78c-.11-1.02-.43-1.91-.96-2.69-.53-.78-1.26-1.38-2.18-1.82-.92-.43-2-.65-3.23-.65-1.36,0-2.55,.28-3.56,.83-1.01,.55-1.79,1.35-2.33,2.37-.54,1.03-.81,2.22-.81,3.59s.27,2.56,.81,3.59c.54,1.03,1.31,1.82,2.32,2.37,1,.55,2.18,.83,3.52,.83,1.2,0,2.26-.22,3.19-.66,.93-.44,1.66-1.06,2.22-1.86,.55-.8,.89-1.73,1.01-2.79h-3.74c-.09,.52-.26,.95-.51,1.29s-.56,.59-.92,.75c-.37,.16-.78,.24-1.25,.24-.59,0-1.1-.13-1.52-.4-.42-.27-.75-.68-.97-1.24-.22-.56-.34-1.27-.34-2.14s.11-1.56,.34-2.12,.55-.98,.97-1.25Z" fill="#191919"/><path d="M157.11,66.91c-.67-.36-1.47-.53-2.41-.53-.68,0-1.3,.11-1.87,.35-.57,.23-1.06,.56-1.48,.98-.24,.24-.45,.52-.63,.82v-6.78h-3.76v17.93h3.76v-7.25c0-.63,.12-1.16,.37-1.59,.25-.42,.56-.74,.95-.94,.39-.2,.81-.3,1.25-.3,.47,0,.86,.08,1.18,.25,.32,.17,.56,.42,.73,.75,.17,.33,.25,.75,.25,1.24v7.84h3.76v-8.4c0-1.09-.18-2-.54-2.73-.36-.73-.88-1.27-1.55-1.63Z" fill="#191919"/><path d="M171.86,66.91c-.67-.36-1.47-.53-2.41-.53-.68,0-1.31,.11-1.88,.35-.57,.23-1.07,.56-1.5,.98-.27,.27-.5,.6-.71,.94v-1.97h-3.65v12.99h3.76v-7.25c0-.63,.12-1.16,.37-1.59,.25-.42,.56-.74,.95-.94,.39-.2,.81-.3,1.25-.3,.47,0,.86,.08,1.18,.25,.32,.17,.56,.42,.73,.75,.17,.33,.25,.75,.25,1.24v7.84h3.76v-8.4c0-1.09-.18-2-.54-2.73-.36-.73-.88-1.27-1.55-1.63Z" fill="#191919"/><path d="M186.35,67.23c-1.04-.56-2.23-.84-3.57-.84s-2.55,.28-3.59,.84-1.85,1.36-2.42,2.39c-.58,1.03-.87,2.22-.87,3.57s.29,2.55,.87,3.58c.58,1.02,1.38,1.81,2.42,2.37s2.24,.84,3.59,.84,2.53-.28,3.57-.84,1.84-1.35,2.42-2.37c.58-1.02,.87-2.22,.87-3.58s-.29-2.55-.87-3.57c-.58-1.03-1.39-1.82-2.42-2.38Zm-.9,8.05c-.26,.56-.61,.99-1.07,1.26-.46,.28-.99,.42-1.6,.42s-1.16-.14-1.62-.42c-.46-.28-.82-.7-1.07-1.26-.25-.56-.38-1.26-.38-2.09s.13-1.53,.38-2.1c.25-.57,.61-1,1.07-1.28,.46-.29,1-.43,1.62-.43s1.13,.14,1.59,.42c.46,.28,.82,.71,1.07,1.28,.26,.57,.39,1.27,.39,2.1s-.13,1.52-.38,2.09Z" fill="#191919"/><rect x="191.6" y="61.74" width="3.76" height="17.93" fill="#191919"/><path d="M207.75,67.23c-1.04-.56-2.23-.84-3.57-.84s-2.55,.28-3.59,.84-1.85,1.36-2.42,2.39c-.58,1.03-.87,2.22-.87,3.57s.29,2.55,.87,3.58c.58,1.02,1.38,1.81,2.42,2.37s2.24,.84,3.59,.84,2.53-.28,3.57-.84,1.84-1.35,2.42-2.37c.58-1.02,.87-2.22,.87-3.58s-.29-2.55-.87-3.57c-.58-1.03-1.39-1.82-2.42-2.38Zm-.9,8.05c-.26,.56-.61,.99-1.07,1.26-.46,.28-.99,.42-1.6,.42s-1.16-.14-1.62-.42c-.46-.28-.82-.7-1.07-1.26-.25-.56-.38-1.26-.38-2.09s.13-1.53,.38-2.1,.61-1,1.07-1.28c.46-.29,1-.43,1.62-.43s1.13,.14,1.59,.42c.46,.28,.82,.71,1.07,1.28,.26,.57,.39,1.27,.39,2.1s-.13,1.52-.38,2.09Z" fill="#191919"/><path d="M223.12,68.35c-.51-.78-1.64-2.09-4.05-2.09-1.73,0-3.31,.63-4.44,1.73-1.25,1.22-2,3.1-2,5.12,0,2.5,1.1,4.17,2.06,5.12,1.25,1.22,2.74,1.76,4.47,1.76,.98,0,2.71-.24,3.96-2.14v1.82c0,1.04-.09,2.06-.92,2.86-.48,.45-1.16,.81-2.2,.81-.51,0-1.49-.03-2.2-.68-.42-.36-.75-.95-.89-1.55h-3.93c.3,1.46,1.07,2.98,2.09,3.84,.83,.74,2.32,1.49,4.83,1.49,2.65,0,4.2-.92,5.09-1.82,1.61-1.61,1.79-3.66,1.79-5.63v-12.3h-3.64v1.67Zm-.74,7.53c-.63,.57-1.52,.89-2.41,.89s-1.85-.3-2.62-1.13c-.54-.57-.95-1.4-.95-2.53,0-1.34,.57-2.2,1.16-2.74,.45-.42,1.25-.89,2.41-.89,.98,0,1.82,.3,2.53,1.04,.51,.53,1.04,1.37,1.04,2.59,0,1.04-.42,2.08-1.16,2.77Z" fill="#191919"/><rect x="229.13" y="66.68" width="3.76" height="12.99" fill="#191919"/><path d="M232.09,61.41c-.33-.19-.69-.29-1.07-.29s-.76,.1-1.09,.29c-.33,.19-.59,.45-.79,.78-.19,.33-.29,.68-.29,1.07s.1,.74,.29,1.08c.19,.33,.46,.59,.79,.79,.33,.2,.69,.29,1.09,.29s.74-.1,1.07-.29c.33-.19,.59-.46,.79-.79,.19-.33,.29-.69,.29-1.08s-.1-.75-.29-1.08c-.19-.33-.45-.59-.78-.78Z" fill="#191919"/><path d="M245.03,67.22c-1-.56-2.17-.85-3.51-.85s-2.53,.28-3.53,.85c-1.01,.57-1.79,1.37-2.33,2.39-.54,1.03-.82,2.22-.82,3.58s.28,2.59,.83,3.61c.55,1.02,1.33,1.8,2.35,2.35,1.01,.54,2.2,.82,3.55,.82,1.1,0,2.08-.18,2.95-.53,.87-.35,1.59-.86,2.16-1.51,.57-.65,.97-1.43,1.2-2.33h-3.53c-.12,.36-.3,.66-.55,.91-.24,.25-.55,.45-.91,.58-.36,.14-.78,.2-1.25,.2-.67,0-1.25-.13-1.72-.39-.48-.26-.84-.65-1.09-1.16-.2-.42-.3-.95-.34-1.53h9.62c.02-.21,.03-.41,.04-.59,0-.18,.01-.35,.01-.5,0-1.33-.27-2.51-.81-3.53-.54-1.02-1.31-1.81-2.31-2.37Zm-5.18,2.3c.45-.28,1-.41,1.64-.41s1.18,.14,1.62,.41c.44,.28,.78,.66,1,1.15,.16,.36,.25,.78,.3,1.23h-5.89c.06-.42,.15-.81,.29-1.14,.24-.55,.59-.97,1.04-1.24Z" fill="#191919"/><path d="M259.41,72.56c-.67-.34-1.55-.59-2.61-.75l-1.67-.25c-.49-.08-.88-.17-1.17-.28-.3-.11-.51-.25-.65-.43-.14-.18-.21-.4-.21-.67s.08-.5,.23-.69c.15-.19,.38-.33,.68-.43,.3-.1,.68-.15,1.13-.15,.54,0,.98,.06,1.33,.17,.35,.11,.62,.31,.81,.58,.19,.27,.3,.64,.33,1.1h3.46c-.04-.89-.26-1.66-.67-2.31-.41-.65-1.05-1.16-1.92-1.52-.87-.37-1.98-.55-3.34-.55-1.2,0-2.22,.16-3.07,.47-.85,.31-1.49,.77-1.94,1.38-.44,.61-.66,1.34-.66,2.2,0,.76,.17,1.41,.51,1.95,.34,.55,.83,.99,1.47,1.33,.64,.34,1.44,.58,2.38,.72l1.9,.29c.5,.08,.9,.18,1.19,.3,.29,.12,.5,.27,.62,.44,.12,.18,.18,.4,.18,.65,0,.3-.08,.54-.25,.73-.16,.19-.41,.34-.75,.44-.34,.1-.77,.15-1.29,.15-.57,0-1.04-.06-1.4-.19-.36-.13-.64-.33-.83-.61-.19-.28-.31-.66-.36-1.13h-3.64c.07,1.01,.35,1.84,.83,2.51,.48,.67,1.16,1.17,2.05,1.5,.89,.33,1.97,.5,3.26,.5s2.36-.17,3.27-.5c.91-.33,1.6-.81,2.08-1.44,.48-.63,.72-1.41,.72-2.32,0-.75-.17-1.39-.49-1.92-.33-.53-.83-.96-1.51-1.3Z" fill="#191919"/><polygon points="127.4 40.13 110.64 40.13 110.64 10.85 103.82 10.85 103.82 46.11 127.4 46.11 127.4 40.13" fill="#191919"/><path d="M134.99,45.08c1.94,1.08,4.18,1.62,6.73,1.62,2.09,0,3.95-.35,5.6-1.05,1.64-.7,3-1.69,4.09-2.97,1.08-1.28,1.84-2.79,2.27-4.51h-6.08c-.26,.79-.64,1.47-1.16,2.02-.52,.56-1.16,.99-1.94,1.29-.78,.3-1.67,.45-2.68,.45-1.4,0-2.61-.28-3.62-.85-1.01-.57-1.78-1.43-2.32-2.59-.43-.92-.68-2.03-.77-3.31h19.09c.03-.35,.04-.69,.05-1,0-.31,.01-.6,.01-.88,0-2.59-.51-4.9-1.52-6.91-1.01-2.02-2.47-3.6-4.38-4.73-1.91-1.13-4.15-1.7-6.72-1.7s-4.79,.55-6.71,1.66c-1.92,1.11-3.41,2.68-4.46,4.71-1.05,2.03-1.57,4.38-1.57,7.03s.53,5.07,1.6,7.08c1.06,2.01,2.56,3.56,4.5,4.64Zm3.15-19.4c.97-.58,2.11-.87,3.44-.87s2.52,.3,3.47,.91,1.67,1.45,2.17,2.53c.37,.8,.6,1.69,.69,2.68h-12.71c.13-.97,.35-1.84,.68-2.58,.54-1.19,1.29-2.08,2.26-2.66Z" fill="#191919"/><path d="M169.56,46.89c1.69,0,5-.18,7.71-3.61v3.31c0,1.87,0,4.52-1.93,6.39-.72,.72-2.17,1.69-4.64,1.69s-3.86-.96-4.58-1.75c-.9-.96-1.63-2.59-1.87-3.98h-5.72c.42,3.07,1.87,6.02,3.74,7.89,2.41,2.41,5.36,3.13,8.31,3.13,4.16,0,6.81-1.38,8.43-2.71,3.49-2.95,4.16-7.23,4.16-13.19V20.75h-5.9v2.77c-2.17-2.59-5-3.43-7.53-3.43-3.07,0-6.09,.9-8.62,3.49-1.99,1.99-3.73,5.18-3.73,9.82,0,4.22,1.51,7.65,3.79,10.06,2.41,2.53,5.12,3.43,8.37,3.43Zm-3.55-19.82c1.32-1.26,2.83-1.69,4.46-1.69s3.31,.36,4.76,1.81c1.51,1.45,2.41,3.56,2.41,6.39,0,1.93-.48,4.09-2.23,5.96-1.45,1.51-3.07,2.05-4.94,2.05s-3.43-.72-4.52-1.69c-1.57-1.39-2.53-3.86-2.53-6.39,0-2.71,1.08-5.06,2.59-6.45Z" fill="#191919"/><path d="M205.88,23.7c-2.41-3.13-5.66-3.62-7.53-3.62-6.69,0-12.35,5.06-12.35,13.31,0,6.99,4.46,13.49,12.29,13.49,1.81,0,5-.42,7.59-3.43v2.65h5.9V20.75h-5.9v2.95Zm-6.81,17.89c-4.28,0-7.05-3.68-7.05-8.07s2.77-8.13,7.05-8.13c3.73,0,7.17,2.65,7.17,8.19s-3.43,8.01-7.17,8.01Z" fill="#191919"/><rect x="216.95" y="10.85" width="6.33" height="35.26" fill="#191919"/><path d="M254.67,12.35c-2.65-1.53-5.72-2.3-9.21-2.3s-6.55,.77-9.21,2.3c-2.65,1.53-4.71,3.69-6.17,6.47-1.46,2.78-2.19,6-2.19,9.66s.73,6.89,2.19,9.68c1.46,2.79,3.52,4.94,6.17,6.47,2.65,1.53,5.72,2.29,9.21,2.29s6.55-.76,9.21-2.29c2.66-1.53,4.72-3.68,6.18-6.47,1.46-2.79,2.19-6.01,2.19-9.68s-.73-6.88-2.2-9.66c-1.47-2.78-3.52-4.94-6.18-6.47Zm0,22.86c-.87,1.88-2.1,3.31-3.68,4.29-1.58,.98-3.42,1.47-5.53,1.47s-3.95-.49-5.53-1.47c-1.58-.98-2.81-2.41-3.67-4.29-.87-1.88-1.3-4.12-1.3-6.73s.43-4.84,1.3-6.72c.87-1.88,2.09-3.31,3.67-4.29,1.58-.98,3.42-1.47,5.53-1.47s3.96,.49,5.53,1.47c1.58,.98,2.8,2.41,3.67,4.29,.87,1.88,1.31,4.12,1.31,6.72s-.44,4.85-1.31,6.73Z" fill="#191919"/><path d="M289.23,24.16c-.71-1.4-1.73-2.45-3.06-3.15-1.33-.7-2.91-1.05-4.76-1.05-1.4,0-2.69,.26-3.86,.77-1.17,.52-2.18,1.23-3.03,2.14-.43,.46-.81,.95-1.14,1.48v-3.8h-6.13v25.56h6.33v-14.33c0-1.41,.27-2.59,.82-3.55,.54-.95,1.25-1.66,2.11-2.12,.86-.46,1.78-.69,2.74-.69,1.02,0,1.89,.18,2.59,.53,.7,.35,1.23,.89,1.6,1.6,.36,.72,.54,1.61,.54,2.68v15.87h6.33V29.33c0-2.05-.36-3.77-1.07-5.18Z" fill="#191919"/></g></svg>