<svg xmlns="http://www.w3.org/2000/svg" xmlns:xlink="http://www.w3.org/1999/xlink" viewBox="0 0 100.2 16.94"><defs><style>.cls-1{fill:url(#名称未設定グラデーション_3);}.cls-2{fill:url(#名称未設定グラデーション_2);}.cls-3{fill:#1a2f62;}</style><linearGradient id="名称未設定グラデーション_3" x1="19.11" y1="-773.47" x2="30.97" y2="-786.54" gradientTransform="matrix(1, 0, 0, -1, 0, -771.02)" gradientUnits="userSpaceOnUse"><stop offset="0" stop-color="#83bce2"/><stop offset="0.19" stop-color="#7db9df"/><stop offset="0.43" stop-color="#6eb0d5"/><stop offset="0.71" stop-color="#54a1c5"/><stop offset="0.99" stop-color="#308cae"/><stop offset="1" stop-color="#2f8cae"/></linearGradient><linearGradient id="名称未設定グラデーション_2" x1="12.51" y1="-785.9" x2="2.63" y2="-770.65" gradientTransform="matrix(1, 0, 0, -1, 0, -771.02)" gradientUnits="userSpaceOnUse"><stop offset="0" stop-color="#e8381b"/><stop offset="1" stop-color="#ec5a42"/></linearGradient></defs><g id="レイヤー_2" data-name="レイヤー 2"><g id="レイヤー_1-2" data-name="レイヤー 1"><path class="cls-1" d="M24.82,0a8.44,8.44,0,0,0-6,2.5l-5.92,6,5.92,6A8.46,8.46,0,1,0,24.82,0Z"/><path class="cls-2" d="M14.37,14.44l-5.91-6,5.91-6,.05,0A8.47,8.47,0,1,0,8.47,16.94a8.45,8.45,0,0,0,5.95-2.45Z"/><path class="cls-3" d="M49.1,14H42.79a.19.19,0,0,1-.19-.18V.41a.13.13,0,0,0-.13-.13H39.68a.13.13,0,0,0-.13.13V16.52a.13.13,0,0,0,.13.13H49.1a.13.13,0,0,0,.13-.13V14.13A.13.13,0,0,0,49.1,14Z"/><path class="cls-3" d="M61.22.28H52.63a.13.13,0,0,0-.13.13V16.52a.13.13,0,0,0,.13.13h8.59a.13.13,0,0,0,.13-.13V14.13a.13.13,0,0,0-.13-.13H55.75a.18.18,0,0,1-.19-.18V10a.18.18,0,0,1,.19-.19H60.9A.13.13,0,0,0,61,9.63V7.3a.13.13,0,0,0-.13-.13H55.75A.19.19,0,0,1,55.56,7V3.13A.18.18,0,0,1,55.75,3h5.47a.13.13,0,0,0,.13-.13V.41A.13.13,0,0,0,61.22.28Z"/><path class="cls-3" d="M72.69,8.24a.19.19,0,0,1,0-.33,3.51,3.51,0,0,0,1.86-3.16C74.54,2.09,72.08.3,68.42.3h-3.7a.13.13,0,0,0-.13.13V16.54a.13.13,0,0,0,.13.13h3.7c4,0,6.6-1.94,6.6-4.83A4,4,0,0,0,72.69,8.24ZM71.57,5.09c0,1.24-1.17,2.08-2.91,2.08h-.85A.19.19,0,0,1,67.62,7V3.13A.18.18,0,0,1,67.81,3h.88C70.41,2.93,71.57,3.8,71.57,5.09Zm-4,4.86a.18.18,0,0,1,.19-.19h.87c2.1,0,3.4.78,3.4,2S70.68,14,68.53,14H67.8a.18.18,0,0,1-.19-.19Z"/><path class="cls-3" d="M86.05.28H77.46a.13.13,0,0,0-.13.13V16.52a.13.13,0,0,0,.13.13h8.59a.13.13,0,0,0,.13-.13V14.13a.13.13,0,0,0-.13-.13H80.57a.19.19,0,0,1-.19-.18V10a.19.19,0,0,1,.19-.19h5.16a.13.13,0,0,0,.13-.13V7.3a.13.13,0,0,0-.13-.13H80.57A.2.2,0,0,1,80.38,7V3.13A.19.19,0,0,1,80.57,3h5.48a.13.13,0,0,0,.13-.13V.41A.13.13,0,0,0,86.05.28Z"/><path class="cls-3" d="M100.17,16.44l-4.66-6a.23.23,0,0,1,0-.18.21.21,0,0,1,.13-.13,4.7,4.7,0,0,0,3.54-4.67C99.15,2.31,96.73.28,93,.28H89.54a.13.13,0,0,0-.13.13V16.52a.13.13,0,0,0,.13.13h2.77a.13.13,0,0,0,.13-.13V11.3a.2.2,0,0,1,.13-.19.06.06,0,0,1,.05,0,.19.19,0,0,1,.16.09l3.9,5.41a.13.13,0,0,0,.11.06h3.27a.12.12,0,0,0,.12-.07A.11.11,0,0,0,100.17,16.44Zm-4-11C96.19,6.92,94.88,8,93,8h-.39a.18.18,0,0,1-.19-.19V3.1a.18.18,0,0,1,.19-.19H93C94.92,2.91,96.19,3.92,96.19,5.43Z"/><path class="cls-3" d="M49.1,14H42.79a.19.19,0,0,1-.19-.18V.41a.13.13,0,0,0-.13-.13H39.68a.13.13,0,0,0-.13.13V16.52a.13.13,0,0,0,.13.13H49.1a.13.13,0,0,0,.13-.13V14.13A.13.13,0,0,0,49.1,14Z"/><path class="cls-3" d="M61.22.28H52.63a.13.13,0,0,0-.13.13V16.52a.13.13,0,0,0,.13.13h8.59a.13.13,0,0,0,.13-.13V14.13a.13.13,0,0,0-.13-.13H55.75a.18.18,0,0,1-.19-.18V10a.18.18,0,0,1,.19-.19H60.9A.13.13,0,0,0,61,9.63V7.3a.13.13,0,0,0-.13-.13H55.75A.19.19,0,0,1,55.56,7V3.13A.18.18,0,0,1,55.75,3h5.47a.13.13,0,0,0,.13-.13V.41A.13.13,0,0,0,61.22.28Z"/><path class="cls-3" d="M72.69,8.24a.19.19,0,0,1,0-.33,3.51,3.51,0,0,0,1.86-3.16C74.54,2.09,72.08.3,68.42.3h-3.7a.13.13,0,0,0-.13.13V16.54a.13.13,0,0,0,.13.13h3.7c4,0,6.6-1.94,6.6-4.83A4,4,0,0,0,72.69,8.24ZM71.57,5.09c0,1.24-1.17,2.08-2.91,2.08h-.85A.19.19,0,0,1,67.62,7V3.13A.18.18,0,0,1,67.81,3h.88C70.41,2.93,71.57,3.8,71.57,5.09Zm-4,4.86a.18.18,0,0,1,.19-.19h.87c2.1,0,3.4.78,3.4,2S70.68,14,68.53,14H67.8a.18.18,0,0,1-.19-.19Z"/><path class="cls-3" d="M86.05.28H77.46a.13.13,0,0,0-.13.13V16.52a.13.13,0,0,0,.13.13h8.59a.13.13,0,0,0,.13-.13V14.13a.13.13,0,0,0-.13-.13H80.57a.19.19,0,0,1-.19-.18V10a.19.19,0,0,1,.19-.19h5.16a.13.13,0,0,0,.13-.13V7.3a.13.13,0,0,0-.13-.13H80.57A.2.2,0,0,1,80.38,7V3.13A.19.19,0,0,1,80.57,3h5.48a.13.13,0,0,0,.13-.13V.41A.13.13,0,0,0,86.05.28Z"/><path class="cls-3" d="M100.17,16.44l-4.66-6a.23.23,0,0,1,0-.18.21.21,0,0,1,.13-.13,4.7,4.7,0,0,0,3.54-4.67C99.15,2.31,96.73.28,93,.28H89.54a.13.13,0,0,0-.13.13V16.52a.13.13,0,0,0,.13.13h2.77a.13.13,0,0,0,.13-.13V11.3a.2.2,0,0,1,.13-.19.06.06,0,0,1,.05,0,.19.19,0,0,1,.16.09l3.9,5.41a.13.13,0,0,0,.11.06h3.27a.12.12,0,0,0,.12-.07A.11.11,0,0,0,100.17,16.44Zm-4-11C96.19,6.92,94.88,8,93,8h-.39a.18.18,0,0,1-.19-.19V3.1a.18.18,0,0,1,.19-.19H93C94.92,2.91,96.19,3.92,96.19,5.43Z"/></g></g></svg>