<?xml version="1.0" encoding="utf-8"?>
<!-- Generator: Adobe Illustrator 26.0.2, SVG Export Plug-In . SVG Version: 6.00 Build 0)  -->
<svg version="1.1" id="レイヤー_1" xmlns="http://www.w3.org/2000/svg" xmlns:xlink="http://www.w3.org/1999/xlink" x="0px"
	 y="0px" viewBox="0 0 841.89 595.28" style="enable-background:new 0 0 841.89 595.28;" xml:space="preserve">
<style type="text/css">
	.st0{fill:none;stroke:#231F20;stroke-dasharray:2,2;}
	.st1{fill:#6785C1;}
</style>
<g>
	<rect x="226.07" y="248.04" class="st0" width="389.75" height="99.2"/>
	<g>
		<path class="st1" d="M302.44,273.38v10.21c0,0,14.47,0,15.56,0c0,1.14,0,38.31,0,38.31h11.02c0,0,0-37.17,0-38.31
			c1.1,0,15.56,0,15.56,0v-10.21H302.44z"/>
		<path class="st1" d="M483.84,273.38h-27.75v10.29h27.02c3.96,0,5.51,1.81,5.51,6.45c0,0.02,0,1.32,0,1.71c-1.11,0-22.39,0-22.39,0
			c-8.51,0-12.75,4.26-12.75,13.88v2.29c0,9.9,4.39,13.88,13.21,13.88h32.83V290C499.52,277.78,495.48,273.38,483.84,273.38z
			 M467.84,311.52c-1.67,0-3.54-0.85-3.54-5.01c0-4.16,1.85-4.89,3.54-4.89c0,0,19.66,0,20.77,0v9.9
			C487.5,311.52,467.84,311.52,467.84,311.52z"/>
		<path class="st1" d="M575.34,273.38h-27.75v10.29h27.01c3.97,0,5.51,1.81,5.51,6.45c0,0.02,0,1.32,0,1.71c-1.11,0-22.39,0-22.39,0
			c-8.51,0-12.75,4.26-12.75,13.88v2.29c0,9.9,4.39,13.88,13.21,13.88h32.83V290C591.02,277.78,586.98,273.38,575.34,273.38z
			 M559.34,311.52c-1.67,0-3.54-0.85-3.54-5.01c0-4.16,1.85-4.89,3.54-4.89c0,0,19.66,0,20.77,0v9.9
			C579,311.52,559.34,311.52,559.34,311.52z"/>
		<path class="st1" d="M348.1,273.38v10.21c0,0,14.47,0,15.56,0c0,1.14,0,38.31,0,38.31h11.03c0,0,0-37.17,0-38.31
			c1.1,0,15.57,0,15.57,0v-10.21H348.1z"/>
		<path class="st1" d="M501.74,273.38v10.21c0,0,14.47,0,15.56,0c0,1.14,0,38.31,0,38.31h11.03c0,0,0-37.17,0-38.31
			c1.09,0,15.56,0,15.56,0v-10.21H501.74z"/>
		<path class="st1" d="M449.2,304.89v-14.51c0-12.71-4.93-17-16.05-17h-29.51v48.5h30.02C445.47,321.88,449.2,316.02,449.2,304.89z
			 M437.95,305.11c0,4.65-1.57,6.45-5.53,6.45c0,0-16.65,0-17.75,0v-27.85c1.1,0,17.75,0,17.75,0c3.96,0,5.53,1.81,5.53,6.46
			C437.95,290.19,437.95,305.11,437.95,305.11z"/>
		<path class="st1" d="M286.9,310.34c-0.23-0.45-14.96-29.14-16.76-31.97c-2.08-3.26-4.6-5.53-9.45-5.53c-4.5,0-9.82,2-9.82,12.8
			v36.27h10.87c0,0,0-28.08,0-30.25c0-2.17-0.14-5.39-0.16-6.04c-0.02-0.53,0-1.04,0.27-1.19c0.32-0.18,0.63,0.11,0.84,0.51
			c0.21,0.4,13.86,27.41,16.76,31.97c2.08,3.26,4.61,5.53,9.45,5.53c4.5,0,9.82-2,9.82-12.8v-36.27h-10.86c0,0,0,28.08,0,30.25
			c0,2.17,0.13,5.39,0.16,6.04c0.02,0.53,0,1.04-0.27,1.19C287.43,311.03,287.12,310.74,286.9,310.34z"/>
	</g>
</g>
</svg>
