<svg width="432" height="133" xmlns="http://www.w3.org/2000/svg" xmlns:xlink="http://www.w3.org/1999/xlink" overflow="hidden"><defs><clipPath id="clip0"><rect x="424" y="552" width="432" height="133"/></clipPath></defs><g clip-path="url(#clip0)" transform="translate(-424 -552)"><path d="M319.134 269.431 319.134 279.613C319.134 279.613 333.565 279.613 334.652 279.613 334.652 280.75 334.652 317.818 334.652 317.818L345.642 317.818C345.642 317.818 345.642 280.75 345.642 279.613 346.739 279.613 361.159 279.613 361.159 279.613L361.159 269.431 319.134 269.431Z" fill="#6785C1" transform="matrix(1 0 0 1.00061 202.939 326.874)"/><path d="M500.028 269.431 472.354 269.431 472.354 279.693 499.3 279.693C503.249 279.693 504.795 281.498 504.795 286.125 504.795 286.145 504.795 287.441 504.795 287.83 503.688 287.83 482.466 287.83 482.466 287.83 473.979 287.83 469.751 292.079 469.751 301.672L469.751 303.956C469.751 313.829 474.129 317.798 482.925 317.798L515.665 317.798 515.665 285.995C515.675 273.819 511.646 269.431 500.028 269.431ZM484.082 307.466C482.416 307.466 480.551 306.619 480.551 302.47 480.551 298.311 482.396 297.593 484.082 297.593 484.082 297.593 503.688 297.593 504.795 297.593L504.795 307.466C503.688 307.466 484.082 307.466 484.082 307.466Z" fill="#6785C1" transform="matrix(1 0 0 1.00061 202.939 326.874)"/><path d="M591.278 269.431 563.604 269.431 563.604 279.693 590.54 279.693C594.499 279.693 596.034 281.498 596.034 286.125 596.034 286.145 596.034 287.441 596.034 287.83 594.927 287.83 573.706 287.83 573.706 287.83 565.219 287.83 560.991 292.079 560.991 301.672L560.991 303.956C560.991 313.829 565.369 317.798 574.164 317.798L606.905 317.798 606.905 285.995C606.925 273.819 602.896 269.431 591.278 269.431ZM575.321 307.466C573.656 307.466 571.791 306.619 571.791 302.47 571.791 298.311 573.636 297.593 575.321 297.593 575.321 297.593 594.927 297.593 596.034 297.593L596.034 307.466C594.938 307.466 575.321 307.466 575.321 307.466Z" fill="#6785C1" transform="matrix(1 0 0 1.00061 202.939 326.874)"/><path d="M364.659 269.431 364.659 279.613C364.659 279.613 379.09 279.613 380.177 279.613 380.177 280.75 380.177 317.818 380.177 317.818L391.177 317.818C391.177 317.818 391.177 280.75 391.177 279.613 392.274 279.613 406.704 279.613 406.704 279.613L406.704 269.431 364.659 269.431Z" fill="#6785C1" transform="matrix(1 0 0 1.00061 202.939 326.874)"/><path d="M517.879 269.431 517.879 279.613C517.879 279.613 532.309 279.613 533.396 279.613 533.396 280.75 533.396 317.818 533.396 317.818L544.396 317.818C544.396 317.818 544.396 280.75 544.396 279.613 545.483 279.613 559.914 279.613 559.914 279.613L559.914 269.431 517.879 269.431Z" fill="#6785C1" transform="matrix(1 0 0 1.00061 202.939 326.874)"/><path d="M465.493 300.854 465.493 286.384C465.493 273.709 460.576 269.431 449.487 269.431L420.057 269.431 420.057 317.798 449.995 317.798C461.773 317.798 465.493 311.954 465.493 300.854ZM454.273 301.074C454.273 305.711 452.708 307.516 448.759 307.516 448.759 307.516 432.154 307.516 431.057 307.516L431.057 279.732C432.154 279.732 448.759 279.732 448.759 279.732 452.708 279.732 454.273 281.537 454.273 286.165 454.273 286.195 454.273 301.074 454.273 301.074Z" fill="#6785C1" transform="matrix(1 0 0 1.00061 202.939 326.874)"/><path d="M303.637 306.28C303.407 305.831 288.718 277.219 286.923 274.397 284.848 271.146 282.335 268.882 277.499 268.882 273.011 268.882 267.705 270.877 267.705 281.647L267.705 317.818 278.546 317.818C278.546 317.818 278.546 289.815 278.546 287.651 278.546 285.487 278.406 282.275 278.386 281.627 278.366 281.099 278.386 280.59 278.655 280.44 278.974 280.261 279.284 280.55 279.493 280.949 279.702 281.348 293.315 308.284 296.207 312.832 298.282 316.083 300.805 318.346 305.631 318.346 310.119 318.346 315.424 316.352 315.424 305.581L315.424 269.411 304.594 269.411C304.594 269.411 304.594 297.414 304.594 299.578 304.594 301.742 304.724 304.953 304.754 305.601 304.774 306.13 304.754 306.639 304.484 306.788 304.155 306.978 303.846 306.688 303.637 306.28Z" fill="#6785C1" transform="matrix(1 0 0 1.00061 202.939 326.874)"/></g></svg>