<?xml version="1.0" encoding="utf-8"?>
<!-- Generator: Adobe Illustrator 26.0.2, SVG Export Plug-In . SVG Version: 6.00 Build 0)  -->
<svg version="1.1" id="レイヤー_3" xmlns="http://www.w3.org/2000/svg" xmlns:xlink="http://www.w3.org/1999/xlink" x="0px"
	 y="0px" viewBox="0 0 841.89 595.28" style="enable-background:new 0 0 841.89 595.28;" xml:space="preserve">
<style type="text/css">
	.st0{fill:#6785C1;}
</style>
<g>
	<path class="st0" d="M320.01,270.17v10.21c0,0,14.47,0,15.56,0c0,1.14,0,38.31,0,38.31h11.02c0,0,0-37.17,0-38.31
		c1.1,0,15.56,0,15.56,0v-10.21H320.01z"/>
	<path class="st0" d="M501.4,270.17h-27.75v10.29h27.02c3.96,0,5.51,1.81,5.51,6.45c0,0.02,0,1.32,0,1.71c-1.11,0-22.39,0-22.39,0
		c-8.51,0-12.75,4.26-12.75,13.88v2.29c0,9.9,4.39,13.88,13.21,13.88h32.83v-31.89C517.09,274.57,513.05,270.17,501.4,270.17z
		 M485.41,308.31c-1.67,0-3.54-0.85-3.54-5.01c0-4.17,1.85-4.89,3.54-4.89c0,0,19.66,0,20.77,0v9.9
		C505.07,308.31,485.41,308.31,485.41,308.31z"/>
	<path class="st0" d="M592.9,270.17h-27.75v10.29h27.01c3.97,0,5.51,1.81,5.51,6.45c0,0.02,0,1.32,0,1.71c-1.11,0-22.39,0-22.39,0
		c-8.51,0-12.75,4.26-12.75,13.88v2.29c0,9.9,4.39,13.88,13.21,13.88h32.83v-31.89C608.59,274.57,604.55,270.17,592.9,270.17z
		 M576.9,308.31c-1.67,0-3.54-0.85-3.54-5.01c0-4.17,1.85-4.89,3.54-4.89c0,0,19.66,0,20.77,0v9.9
		C596.57,308.31,576.9,308.31,576.9,308.31z"/>
	<path class="st0" d="M365.66,270.17v10.21c0,0,14.47,0,15.56,0c0,1.14,0,38.31,0,38.31h11.03c0,0,0-37.17,0-38.31
		c1.1,0,15.57,0,15.57,0v-10.21H365.66z"/>
	<path class="st0" d="M519.3,270.17v10.21c0,0,14.47,0,15.56,0c0,1.14,0,38.31,0,38.31h11.03c0,0,0-37.17,0-38.31
		c1.09,0,15.56,0,15.56,0v-10.21H519.3z"/>
	<path class="st0" d="M466.77,301.68v-14.51c0-12.71-4.93-17-16.05-17h-29.51v48.5h30.02C463.04,318.67,466.77,312.81,466.77,301.68
		z M455.52,301.9c0,4.65-1.57,6.46-5.53,6.46c0,0-16.65,0-17.75,0V280.5c1.1,0,17.75,0,17.75,0c3.96,0,5.53,1.81,5.53,6.45
		C455.52,286.98,455.52,301.9,455.52,301.9z"/>
	<path class="st0" d="M304.47,307.12c-0.23-0.45-14.96-29.14-16.76-31.97c-2.08-3.26-4.6-5.53-9.45-5.53c-4.5,0-9.82,2-9.82,12.8
		v36.27h10.87c0,0,0-28.08,0-30.25c0-2.17-0.14-5.39-0.16-6.04c-0.02-0.53,0-1.04,0.27-1.19c0.32-0.18,0.63,0.11,0.84,0.51
		c0.21,0.4,13.86,27.41,16.76,31.97c2.08,3.26,4.61,5.53,9.45,5.53c4.5,0,9.82-2,9.82-12.8v-36.27h-10.86c0,0,0,28.08,0,30.25
		c0,2.17,0.13,5.39,0.16,6.04c0.02,0.53,0,1.04-0.27,1.19C304.99,307.82,304.68,307.53,304.47,307.12z"/>
</g>
</svg>
