<?xml version="1.0" encoding="utf-8"?>
<!-- Generator: Adobe Illustrator 25.4.1, SVG Export Plug-In . SVG Version: 6.00 Build 0)  -->
<svg version="1.1" id="レイヤー_1" xmlns="http://www.w3.org/2000/svg" xmlns:xlink="http://www.w3.org/1999/xlink" x="0px"
	 y="0px" viewBox="0 0 386.5 99.1" style="enable-background:new 0 0 386.5 99.1;" xml:space="preserve">
<style type="text/css">
	.st0{fill:none;}
	.st1{fill:#BF0000;}
</style>
<g>
	<path class="st0" d="M2.8,99.1c-1.6,0-2.8-1.3-2.8-2.8V2.8C0,1.3,1.3,0,2.8,0h380.8c1.6,0,2.8,1.3,2.8,2.8v93.4
		c0,1.6-1.3,2.8-2.8,2.8H2.8z"/>
	<g>
		<rect x="14.2" y="14.2" class="st0" width="358.1" height="70.7"/>
		<g>
			<g>
				<path class="st1" d="M17.3,84.9h-3.1V58h3.1V84.9z"/>
				<path class="st1" d="M23.7,65.1c1.3-1.3,3.7-2.2,5.9-2.2c4.6,0,7.8,3.5,7.8,8.7v13.4h-3.1V71.5c0-3.5-2-5.7-5.1-5.7
					c-2.9,0-5.5,2.7-5.5,5.6v13.6h-3.1V63.4h2.7L23.7,65.1z"/>
				<path class="st1" d="M51.4,67.8c-1.1-1.3-2.7-2.1-4.3-2.1c-2.1,0-3.6,1.2-3.6,3c0,1.1,0.4,1.9,1.2,2.5c0.4,0.3,0.4,0.3,4,1.8
					c4.2,1.8,5.8,3.7,5.8,6.5c0,3.6-2.9,5.9-7.4,5.9c-3.3,0-5.8-1.2-7.6-3.5l2.2-2c1.7,1.8,3.3,2.6,5.5,2.6c2.5,0,4.1-1.1,4.1-3
					c0-1-0.6-2.1-1.8-3c-0.8-0.6-1.7-1.1-4.5-2.2c-3.4-1.4-4.8-3.1-4.8-5.9c0-3.5,2.7-5.7,6.8-5.7c2.7,0,4.7,0.8,6.6,2.7L51.4,67.8z
					"/>
				<path class="st1" d="M62.3,58.6v4.7h5.4v2.9h-5.4v14.3c0,1.3,0.8,2.1,2.2,2.1c1.2,0,1.9-0.4,2.6-1.6l2.3,1.6
					c-1.5,2.2-2.9,2.9-5.2,2.9c-2.4,0-3.9-0.9-4.6-2.9c-0.3-0.7-0.4-1.5-0.4-2.7V66.2h-3.7v-2.9h3.7v-4.7H62.3z"/>
				<path class="st1" d="M71.5,60.7v-3.6h3.6v3.6H71.5z M71.7,84.9V63.4h3.1v21.6H71.7z"/>
				<path class="st1" d="M84.2,58.6v4.7h5.4v2.9h-5.4v14.3c0,1.3,0.8,2.1,2.2,2.1c1.2,0,1.9-0.4,2.6-1.6l2.3,1.6
					c-1.5,2.2-2.9,2.9-5.2,2.9c-2.4,0-3.9-0.9-4.6-2.9c-0.3-0.7-0.4-1.5-0.4-2.7V66.2h-3.7v-2.9h3.7v-4.7H84.2z"/>
				<path class="st1" d="M106.3,82.8c-1.5,1.7-3.6,2.7-5.9,2.7c-4.6,0-7.7-3.5-7.7-8.7V63.4h3.1v13.4c0,3.5,2,5.7,5.1,5.7
					c2.9,0,5.5-2.7,5.5-5.6V63.4h3.1v21.6h-2.7L106.3,82.8z"/>
				<path class="st1" d="M118.6,58.6v4.7h5.4v2.9h-5.4v14.3c0,1.3,0.8,2.1,2.2,2.1c1.2,0,1.9-0.4,2.6-1.6l2.3,1.6
					c-1.5,2.2-2.9,2.9-5.2,2.9c-2.4,0-3.9-0.9-4.6-2.9c-0.3-0.7-0.4-1.5-0.4-2.7V66.2h-3.7v-2.9h3.7v-4.7H118.6z"/>
				<path class="st1" d="M144.5,81c-1.8,2.9-4.9,4.5-8.7,4.5c-5.9,0-10-4.7-10-11.4c0-6.6,3.9-11.3,9.5-11.3c5.2,0,9.3,4.6,9.3,10.4
					c0,0.6,0,1-0.1,1.7h-15.5c0.2,2.5,0.8,4.2,2.2,5.6c1.2,1.3,2.8,2.1,4.5,2.1c2.7,0,5-1.3,6.1-3.6L144.5,81z M141.3,72.2
					c-0.3-4-2.6-6.6-5.8-6.6c-2.1,0-4,1.1-5.2,3c-0.6,1.1-0.9,2-1.1,3.6H141.3z"/>
				<path class="st1" d="M171.3,74.1c0,6.7-3.9,11.3-9.6,11.3c-5.7,0-9.6-4.6-9.6-11.3c0-6.7,3.9-11.3,9.6-11.3
					C167.4,62.8,171.3,67.5,171.3,74.1z M155.5,74.1c0,4.9,2.7,8.5,6.3,8.5c3.6,0,6.3-3.6,6.3-8.4c0-4.9-2.6-8.5-6.3-8.5
					C158.1,65.7,155.5,69.3,155.5,74.1z"/>
				<path class="st1" d="M175.2,61.5c0-3.8,1.9-5.7,5.7-5.7h1.7v2.9h-1.8c-1.7,0-2.5,0.8-2.5,2.5v2.2h4.6v2.9h-4.6v18.7h-3.1V66.2
					h-3.1v-2.9h3.1V61.5z"/>
				<path class="st1" d="M201.6,60.7v24.2h-3.1V60.7h-7.7V58h18.5v2.7H201.6z"/>
				<path class="st1" d="M226.4,81c-1.8,2.9-4.9,4.5-8.7,4.5c-5.9,0-10-4.7-10-11.4c0-6.6,3.9-11.3,9.5-11.3c5.2,0,9.3,4.6,9.3,10.4
					c0,0.6,0,1-0.1,1.7h-15.5c0.2,2.5,0.8,4.2,2.2,5.6c1.2,1.3,2.8,2.1,4.5,2.1c2.7,0,5-1.3,6.1-3.6L226.4,81z M223.2,72.2
					c-0.3-4-2.6-6.6-5.8-6.6c-2.1,0-4,1.1-5.2,3c-0.6,1.1-0.9,2-1.1,3.6H223.2z"/>
				<path class="st1" d="M243.1,68.5c-1-1.7-2.8-2.7-4.8-2.7c-3.6,0-6.3,3.6-6.3,8.4c0,4.9,2.7,8.5,6.3,8.5c2,0,3.8-1.1,4.9-2.9
					l2.4,2.2c-1.6,2.3-4.3,3.6-7.3,3.6c-5.7,0-9.5-4.6-9.5-11.3c0-6.7,3.9-11.3,9.5-11.3c3.1,0,5.7,1.3,7.3,3.6L243.1,68.5z"/>
				<path class="st1" d="M251.1,65.5c1.6-1.7,3.7-2.7,6-2.7c4.6,0,7.7,3.5,7.7,8.7v13.4h-3.1V71.5c0-3.5-2-5.7-5.1-5.7
					c-2.9,0-5.5,2.7-5.5,5.6v13.6H248V56.2h3.1V65.5z"/>
				<path class="st1" d="M271.3,65.1c1.3-1.3,3.7-2.2,5.9-2.2c4.6,0,7.8,3.5,7.8,8.7v13.4H282V71.5c0-3.5-2-5.7-5.1-5.7
					c-2.9,0-5.5,2.7-5.5,5.6v13.6h-3.1V63.4h2.7L271.3,65.1z"/>
				<path class="st1" d="M306.4,74.1c0,6.7-3.9,11.3-9.6,11.3s-9.6-4.6-9.6-11.3c0-6.7,3.9-11.3,9.6-11.3
					C302.5,62.8,306.4,67.5,306.4,74.1z M290.5,74.1c0,4.9,2.7,8.5,6.3,8.5c3.6,0,6.3-3.6,6.3-8.4c0-4.9-2.6-8.5-6.3-8.5
					C293.2,65.7,290.5,69.3,290.5,74.1z"/>
				<path class="st1" d="M308.7,84.9V56.2h3.1v28.7H308.7z"/>
				<path class="st1" d="M333.2,74.1c0,6.7-3.9,11.3-9.6,11.3c-5.7,0-9.6-4.6-9.6-11.3c0-6.7,3.9-11.3,9.6-11.3
					C329.3,62.8,333.2,67.5,333.2,74.1z M317.3,74.1c0,4.9,2.7,8.5,6.3,8.5c3.6,0,6.3-3.6,6.3-8.4c0-4.9-2.6-8.5-6.3-8.5
					C320,65.7,317.3,69.3,317.3,74.1z"/>
				<path class="st1" d="M352.5,80.5c0,6.6-3.1,10.2-8.8,10.2c-3.1,0-5.7-1.2-7.7-3.6l2.1-2c1.4,1.7,3.5,2.8,5.4,2.8
					c4,0,5.7-2.6,5.8-8.9c-1.2,1.9-3.3,2.9-6.1,2.9c-4.8,0-8.2-3.8-8.2-9.2c0-5.7,3.5-9.9,8.4-9.9c2.4,0,4.3,0.8,5.7,2.3l0.6-1.7
					h2.7V80.5z M338.2,72.6c0,3.9,2.3,6.6,5.5,6.6c3.3,0,5.6-2.7,5.6-6.6c0-4-2.4-7-5.6-7C340.5,65.6,338.2,68.5,338.2,72.6z"/>
				<path class="st1" d="M372.3,63.4l-7.7,23.4c-0.8,2.5-2.6,3.9-5,3.9c-1.5,0-2.8-0.5-3.8-1.5l1.4-2.2c0.7,0.6,1.3,0.9,2.2,0.9
					c1.2,0,1.8-0.5,2.4-2.1l0.5-1.3l-7.5-21h3.2l5.7,16.7l5.4-16.7H372.3z"/>
			</g>
			<g>
				<polygon class="st1" points="125.4,46.8 41.8,46.8 48.5,53.4 				"/>
				<path class="st1" d="M49.6,19.8v1c-1.6-1-2.9-1.6-4.9-1.6c-5.9,0-10.3,5.3-10.3,11.9c0,6.6,4.5,11.9,10.3,11.9
					c1.9,0,3.3-0.6,4.9-1.6v1h5.1V19.8H49.6z M44.7,37.6c-2.9,0-5-2.8-5-6.4c0-3.6,2.1-6.4,5-6.4c2.9,0,4.9,2.8,4.9,6.4
					C49.6,34.8,47.6,37.6,44.7,37.6z"/>
				<path class="st1" d="M90.8,19.8v13.3c0,2.5-1.7,4.6-4.2,4.6c-2.5,0-4.2-2.1-4.2-4.6V19.8h-5.2v13.3c0,5.5,3.7,9.9,9.2,9.9
					c2.5,0,4.4-1.4,4.4-1.4v0.8H96V19.8H90.8z"/>
				<path class="st1" d="M138.8,42.5V29.2c0-2.5,1.7-4.6,4.2-4.6c2.5,0,4.2,2.1,4.2,4.6v13.3h5.1V29.2c0-5.5-3.7-9.9-9.2-9.9
					c-2.5,0-4.4,1.4-4.4,1.4v-0.8h-5.2v22.7H138.8z"/>
				<path class="st1" d="M19.6,42.5v-8.8h3.8l6.6,8.8h6.7l-8-10.6c2.5-1.8,4.1-4.7,4.1-8c0-5.4-4.4-9.8-9.8-9.8h-8.9v28.3H19.6z
					 M19.6,19.6h3.5c2.4,0,4.4,2,4.4,4.4c0,2.4-2,4.4-4.4,4.4h-3.5V19.6z"/>
				<path class="st1" d="M109.9,37.2c-0.5,0.3-1,0.6-1.7,0.6c-0.8,0-2.4-0.6-2.4-2.8v-9.7h4.4v-5.4h-4.4l0-5.7h-5.2l0,5.7h-2.7v5.4
					h2.7V35c0,5.1,3.8,8.1,7.7,8.1c1.4,0,3.4-0.5,5-1.4L109.9,37.2z"/>
				<polygon class="st1" points="67.5,30.5 76.4,19.8 69.1,19.8 63,27.7 63,12.3 57.7,12.3 57.7,42.5 63,42.5 63,33.2 70.6,42.5 
					77.8,42.5 				"/>
				<path class="st1" d="M121.7,19.3c-6,0-10.2,5.2-10.2,11.9c0,7,5.4,11.9,10.7,11.9c2.7,0,6.2-0.9,9.1-5.1l-4.5-2.6
					c-3.5,5.2-9.4,2.6-10.1-2.6l14.8,0C132.9,24.6,127.6,19.3,121.7,19.3z M126.2,28.2H117C118.1,22.9,125.2,22.6,126.2,28.2z"/>
			</g>
		</g>
	</g>
</g>
</svg>
