<svg xmlns="http://www.w3.org/2000/svg" xmlns:xlink="http://www.w3.org/1999/xlink" viewBox="0 0 283.46 106.83"><defs><style>.cls-1{fill:none;}.cls-2{fill:#d70c18;}.cls-3{clip-path:url(#clip-path);}.cls-4{fill:#004e98;}</style><clipPath id="clip-path" transform="translate(0 0)"><rect class="cls-1" width="283.46" height="106.83"/></clipPath></defs><g id="レイヤー_2" data-name="レイヤー 2"><g id="レイヤー_1-2" data-name="レイヤー 1"><rect class="cls-2" x="0.74" y="90.24" width="281.7" height="16.6"/><g class="cls-3"><path class="cls-4" d="M95.68,50.09a1.39,1.39,0,0,1-1.5-1.78l7.69-42.87a2.31,2.31,0,0,1,1.41-1.69,56.35,56.35,0,0,1,19-3.75c14.16,0,20.54,9,18.2,22.33l-4.7,26.26a1.66,1.66,0,0,1-1.78,1.5H123.26a1.46,1.46,0,0,1-1.5-1.78l4.69-27.39c1.12-5.91-.94-8.63-5.92-8.63a15.69,15.69,0,0,0-6,1.12l-6.19,35.18a1.6,1.6,0,0,1-1.78,1.5Z" transform="translate(0 0)"/><path class="cls-4" d="M238.15,50.09a1.4,1.4,0,0,1-1.5-1.78l7.69-42.87a2.33,2.33,0,0,1,1.41-1.69,56.35,56.35,0,0,1,19-3.75C279,0,285.34,9,283,22.33L278.3,48.59a1.67,1.67,0,0,1-1.78,1.5H265.73a1.47,1.47,0,0,1-1.5-1.78l4.69-27.39c1.13-5.91-.94-8.63-5.91-8.63a15.65,15.65,0,0,0-6,1.12l-6.19,35.18a1.61,1.61,0,0,1-1.79,1.5Z" transform="translate(0 0)"/><path class="cls-4" d="M174.28,12.5l.37.08A26.6,26.6,0,0,1,179.18,14c1,.46,1.78.28,2.15-.73l2.94-7.53c.28-.83.28-1.47-.28-1.84a27.2,27.2,0,0,0-4.76-2.19h0c-.94-.33-1.92-.64-2.93-.91a31.5,31.5,0,0,0-8.39-.7c-10.09.53-17,4.63-18.85,13.44C147,23.64,154.31,29.17,163.5,31.05c3.75.84,7,1.59,6.38,4.5-.47,2.16-2.72,3.57-7.23,3.57a20.06,20.06,0,0,1-12.19-4,1.49,1.49,0,0,0-2.25.38l-5.35,7.32a1.48,1.48,0,0,0,.29,2.25c5.15,4.22,11.25,6.28,19,6.28,11.72,0,20.07-4.59,21.95-14.54,2-11-7-15.47-14.26-17.07-4.5-1-7.5-1.88-6.94-4.69.37-2.35,2.53-3.1,6-3.1a23.93,23.93,0,0,1,4.87.49h0l.47.11" transform="translate(0 0)"/><path class="cls-4" d="M31.81,12.5l.37.08A26.6,26.6,0,0,1,36.71,14c1,.46,1.78.28,2.15-.73l2.93-7.53c.29-.83.29-1.47-.27-1.84a27.54,27.54,0,0,0-4.76-2.19h0c-.93-.33-1.92-.64-2.93-.91a31.39,31.39,0,0,0-8.38-.7C15.35.6,8.41,4.7,6.58,13.51,4.52,23.64,11.83,29.17,21,31.05c3.75.84,7,1.59,6.38,4.5-.47,2.16-2.73,3.57-7.23,3.57A20.06,20.06,0,0,1,8,35.08a1.49,1.49,0,0,0-2.25.38L.39,42.78A1.49,1.49,0,0,0,.67,45c5.16,4.22,11.26,6.28,19,6.28,11.73,0,20.08-4.59,22-14.54,2-11-7-15.47-14.26-17.07-4.51-1-7.51-1.88-6.94-4.69.37-2.35,2.53-3.1,6-3.1a23.76,23.76,0,0,1,4.86.49h0l.48.11" transform="translate(0 0)"/><path class="cls-4" d="M73.45,0a49.78,49.78,0,0,0-7.87.63,32.5,32.5,0,0,0-9.15,2.92c-.58.35-.62,1-.39,1.86l2.46,7.85a1.28,1.28,0,0,0,1.73,1,27.09,27.09,0,0,1,5.64-1.37l.2,0h0a32.56,32.56,0,0,1,4.2-.29c5.91,0,7.22,2.53,6.37,7.13l-.18,1.5a41.86,41.86,0,0,0-8-.75c-12,0-19.69,4-21.29,13.13C45.31,43.81,52,51.31,65.1,51.31A60.77,60.77,0,0,0,84.61,48,2.18,2.18,0,0,0,86,46.24l4.22-23.73C92.77,8.44,86.2,0,73.45,0m-5.1,41.82a6.45,6.45,0,1,1,6.44-6.45,6.45,6.45,0,0,1-6.44,6.45" transform="translate(0 0)"/><path class="cls-4" d="M215.92,0a49.78,49.78,0,0,0-7.87.63,32.6,32.6,0,0,0-9.15,2.92c-.58.35-.62,1-.39,1.86L201,13.26a1.28,1.28,0,0,0,1.73,1,27.09,27.09,0,0,1,5.64-1.37l.2,0h0a32.28,32.28,0,0,1,4.19-.29c5.91,0,7.22,2.53,6.38,7.13l-.19,1.5a41.83,41.83,0,0,0-8-.75c-12,0-19.7,4-21.29,13.13-1.88,10.23,4.78,17.73,17.91,17.73A60.72,60.72,0,0,0,227.08,48a2.16,2.16,0,0,0,1.41-1.79l4.22-23.73C235.24,8.44,228.67,0,215.92,0m-5.1,41.82a6.45,6.45,0,1,1,6.44-6.45,6.44,6.44,0,0,1-6.44,6.45" transform="translate(0 0)"/></g></g></g></svg>