<?xml version="1.0" encoding="utf-8"?>
<!-- Generator: Adobe Illustrator 27.1.1, SVG Export Plug-In . SVG Version: 6.00 Build 0)  -->
<svg version="1.1" id="レイヤー_1" xmlns="http://www.w3.org/2000/svg" xmlns:xlink="http://www.w3.org/1999/xlink" x="0px"
	 y="0px" viewBox="0 0 340.1 60" style="enable-background:new 0 0 340.1 60;" xml:space="preserve">
<g>
	<path d="M222,54.8c0,1.5-0.5,2.7-1.5,3.7s-2.2,1.5-3.7,1.5c-1.4,0-2.7-0.5-3.6-1.5c-1-1-1.5-2.2-1.5-3.7s0.5-2.7,1.5-3.7
		s2.2-1.5,3.6-1.5c1.4,0,2.7,0.5,3.6,1.5C221.5,52.1,222,53.3,222,54.8z"/>
	<path d="M252.3,36.4c-0.9-0.5-1.7-0.9-2.6-1.2c-0.8-0.2-1.7-0.4-2.5-0.4c-2.2,0-3.9,0.7-5.1,2.2c-1.3,1.5-1.9,3.5-1.9,6
		c0,2.6,0.6,4.7,1.9,6.1c1.3,1.4,3.1,2.2,5.5,2.2c0.9,0,1.7-0.1,2.5-0.4s1.5-0.7,2.2-1.3v8.5c-1.2,0.6-2.4,1.1-3.7,1.4
		s-2.6,0.4-4,0.4c-4.8,0-8.5-1.5-11.4-4.5c-2.8-3-4.2-7.1-4.2-12.2s1.4-9.2,4.2-12.2s6.6-4.5,11.3-4.5c1.4,0,2.7,0.1,3.9,0.3
		c1.3,0.2,2.5,0.5,3.8,0.9L252.3,36.4L252.3,36.4z"/>
	<path d="M289.2,43.3c0,5.1-1.5,9.2-4.4,12.2S277.9,60,273,60c-4.9,0-8.8-1.5-11.8-4.5c-2.9-3-4.4-7.1-4.4-12.2s1.5-9.2,4.4-12.2
		s6.8-4.5,11.8-4.5c4.9,0,8.8,1.5,11.8,4.5C287.7,34.1,289.2,38.2,289.2,43.3z M273,52.2c1.9,0,3.4-0.8,4.4-2.3
		c1-1.6,1.6-3.8,1.6-6.7c0-2.9-0.5-5.1-1.6-6.6c-1-1.6-2.5-2.3-4.4-2.3s-3.3,0.8-4.4,2.3c-1,1.5-1.5,3.8-1.5,6.6
		c0,2.9,0.5,5.1,1.5,6.7C269.7,51.5,271.2,52.2,273,52.2z"/>
	<path d="M294.9,60V27.3h9.8v5.1c1.3-1.8,2.8-3.2,4.5-4.1s3.5-1.3,5.6-1.3s3.8,0.4,5.1,1.4c1.3,0.9,2.2,2.2,2.6,4
		c1.5-1.8,3.1-3.2,4.7-4.1c1.6-0.9,3.4-1.3,5.3-1.3c2.8,0,4.8,0.8,5.9,2.5c1.1,1.6,1.7,5,1.7,10.1V60h-10.4V40.2
		c0-1.9-0.2-3.2-0.7-3.9c-0.5-0.7-1.3-1.1-2.4-1.1c-1.4,0-2.4,0.4-3,1.2c-0.6,0.8-0.9,2.2-0.9,4.2V60h-10.3V40.2
		c0-1.8-0.2-3.1-0.7-3.9s-1.3-1.1-2.4-1.1c-1.4,0-2.4,0.4-3,1.2c-0.6,0.8-0.9,2.2-0.9,4.2V60H294.9z"/>
	<path d="M192.8,0h-21.2l-7.9,28.2L155,0h-19.6l-5.9,30.8L124,0h-21.4l-7.9,28.2L85.9,0H66.3l-4.4,23.1C58.6,8.4,45.1,0,24.8,0H0v60
		h30c9.6,0,20.4-3,26.9-11.1L54.8,60h21l4.3-25.2L87.4,60h16.4l6.3-25l3.8,25h30.8l4.3-25.2l7.3,25.2h16.4l6.3-25l3.8,25h20.8
		L192.8,0z M26.5,39.2V20.5c4.5,0,11.4,0.2,11.4,9.3C38,39.1,31.3,39.2,26.5,39.2z"/>
</g>
</svg>
