<?xml version="1.0" encoding="UTF-8"?>
<svg id="LayerX_logo" xmlns="http://www.w3.org/2000/svg" width="242" height="71" xmlns:xlink="http://www.w3.org/1999/xlink" viewBox="0 0 242 71">
  <defs>
    <style>
      .cls-1 {
        fill: none;
      }

      .cls-2 {
        fill: #d70091;
      }

      .cls-3 {
        fill: url(#_名称未設定グラデーション_3);
      }

      .cls-4 {
        fill: url(#_名称未設定グラデーション_8);
      }
    </style>
    <linearGradient id="_名称未設定グラデーション_3" data-name="名称未設定グラデーション 3" x1="38.5" y1="42.6" x2="-1.5" y2="42.6" gradientTransform="translate(52.5 -7.7) rotate(45)" gradientUnits="userSpaceOnUse">
      <stop offset="0" stop-color="#d70091" stop-opacity="0"/>
      <stop offset="0" stop-color="#d70091" stop-opacity="0"/>
      <stop offset=".3" stop-color="#d70091" stop-opacity=".2"/>
      <stop offset=".5" stop-color="#d70091" stop-opacity=".3"/>
      <stop offset=".7" stop-color="#d70091" stop-opacity=".6"/>
      <stop offset=".9" stop-color="#d70091" stop-opacity=".9"/>
      <stop offset="1" stop-color="#d70091"/>
    </linearGradient>
    <linearGradient id="_名称未設定グラデーション_8" data-name="名称未設定グラデーション 8" x1="23.7" y1="35.5" x2="63.7" y2="35.5" gradientUnits="userSpaceOnUse">
      <stop offset="0" stop-color="#d70091" stop-opacity="0"/>
      <stop offset=".2" stop-color="#d70091" stop-opacity=".1"/>
      <stop offset=".5" stop-color="#d70091" stop-opacity=".5"/>
      <stop offset="1" stop-color="#d70091" stop-opacity="1"/>
      <stop offset="1" stop-color="#d70091"/>
    </linearGradient>
  </defs>
  <g id="LayerX_logo_rgb_horizontal">
    <g id="logo">
      <g id="typo">
        <path class="cls-2" d="M87.5,47.7V22.2h5v21.1h11.6v4.4h-16.5Z"/>
        <path class="cls-2" d="M121.6,47.7v-1.6c-1.3,1.3-2.4,1.8-4.6,1.8s-3.7-.5-4.8-1.6c-1-1-1.5-2.5-1.5-4.2,0-3,2-5.4,6.4-5.4h4.4v-.9c0-2-1-2.9-3.5-2.9s-2.6,.4-3.6,1.5l-3-2.9c1.8-2,3.6-2.6,6.7-2.6,5.2,0,8,2.2,8,6.6v12.3h-4.5Zm-.1-7.9h-3.7c-1.7,0-2.6,.8-2.6,2.1s.9,2.1,2.7,2.1,2.1-.1,2.9-.9c.5-.5,.7-1.2,.7-2.4v-1Z"/>
        <path class="cls-2" d="M161.1,39.9c0,2.4,1.5,4.2,4.1,4.2s3-.6,4.2-1.8l2.8,2.8c-1.9,1.9-3.7,2.9-7.1,2.9s-8.6-2-8.6-9.6,3.3-9.5,8.1-9.5,8.1,3.8,8.1,8.9v2.1h-11.7Zm6.7-5.2c-.5-1.1-1.5-1.9-3.1-1.9s-2.6,.8-3.1,1.9c-.3,.7-.4,1.2-.4,2h7.1c0-.8-.1-1.3-.4-2Z"/>
        <path class="cls-2" d="M191.9,34.5c-1-1-1.7-1.1-2.8-1.1s-3,1.1-3,3.4v10.9h-4.7V29.1h4.5v1.8c.9-1.1,2.7-2,4.7-2s3.1,.5,4.4,1.8l-3.2,3.9Z"/>
        <path class="cls-2" d="M215.1,47.7l-4.9-8.9-4.9,8.9h-5.7l7.9-13.1-7.4-12.4h5.7l4.4,8.2,4.5-8.2h5.6l-7.4,12.4,8,13.1h-5.7Z"/>
        <path class="cls-2" d="M141.6,55.1h-4.5l2.5-7.9-6.6-18.1h4.8l3.9,11.5,3.7-11.5h4.7s-8.6,26-8.6,26Z"/>
      </g>
      <g id="mark">
        <path class="cls-2" d="M71.6,34.4L53.1,15.9c-.6-.6-1.5-.6-2.1,0l-2.5,2.5,15.4,15.4c.4,.4,.7,1,.7,1.6s-.2,1.2-.7,1.6l-15.4,15.4,2.5,2.5c.6,.6,1.5,.6,2.1,0l18.5-18.5c.6-.6,.6-1.5,0-2.1Z"/>
        <path class="cls-2" d="M55.1,34.4l-11.3-11.3-11.3,11.3c-.6,.6-.6,1.5,0,2.1l11.3,11.3,11.3-11.3c.6-.6,.6-1.5,0-2.1Z"/>
        <path class="cls-2" d="M63.3,34.4l-15.4-15.4-3.4,3.4,11.3,11.3c.5,.5,.7,1.1,.7,1.7s-.3,1.3-.7,1.7l-11.3,11.3,3.4,3.4,15.4-15.4c.6-.6,.6-1.5,0-2.1Z"/>
        <rect class="cls-3" x="20.9" y="20.9" width="29.2" height="29.2" rx="1.5" ry="1.5" transform="translate(-14.7 35.5) rotate(-45)"/>
        <path class="cls-4" d="M55.1,34.4l-15.4-15.4-15.4,15.4c-.6,.6-.6,1.5,0,2.1l15.4,15.4,15.4-15.4c.6-.6,.6-1.5,0-2.1Zm8.2,0L44.8,15.9c-.6-.6-1.5-.6-2.1,0l-2.4,2.4,15.4,15.4c.5,.5,.7,1.1,.7,1.7s-.3,1.3-.7,1.7l-15.4,15.4,2.4,2.4c.6,.6,1.5,.6,2.1,0l18.5-18.5c.6-.6,.6-1.5,0-2.1Z"/>
      </g>
    </g>
    <rect id="isolation" class="cls-1" width="242" height="71"/>
  </g>
</svg>