<svg xmlns="http://www.w3.org/2000/svg" viewBox="0 0 205.29 53.94"><defs><style>.cls-1{fill:#555864;}</style></defs><g id="レイヤー_2" data-name="レイヤー 2"><g id="レイヤー_1-2" data-name="レイヤー 1"><polygon class="cls-1" points="8.26 8.72 8.26 35.98 19.77 42.61 19.77 46.2 4.89 37.62 4.89 10.66 0 13.48 0 40.45 23.36 53.94 23.36 26.97 23.36 26.97 46.71 13.48 23.36 0 8.26 8.72"/><polygon class="cls-1" points="26.72 51.99 46.71 40.45 46.71 26.09 30.31 35.56 30.31 31.97 46.71 22.5 46.71 17.07 26.72 28.61 26.72 51.99"/><rect class="cls-1" x="126.7" y="13.48" width="3.74" height="26.97"/><polygon class="cls-1" points="138.72 17.15 148.45 17.15 148.45 13.48 134.99 13.48 134.99 40.45 138.72 40.45 138.72 28.08 145.72 28.08 146.53 24.38 138.72 24.38 138.72 17.15"/><path class="cls-1" d="M100.62,19.76a6.65,6.65,0,0,0-7,6.94v6.67a6.72,6.72,0,0,0,7,7.08,7.31,7.31,0,0,0,2.91-.58l.31-.13,0,.33c-.19,2.85-1.17,3.86-3.28,3.79-.16,0-.34,0-.54,0l-.74,3.38.18,0a9,9,0,0,0,1,0c4.59,0,7.12-2.81,7.12-7.52V26.7A6.58,6.58,0,0,0,100.62,19.76Zm3.23,13.76c0,2.2-1.27,3.62-3.23,3.62s-3.23-1.42-3.23-3.62V26.7c0-2.2,1.27-3.62,3.23-3.62s3.23,1.42,3.23,3.62Z"/><path class="cls-1" d="M169,22.43l-.37.53V20.15h-3.74v20.3h3.74V27.36a3.65,3.65,0,0,1,2.59-3.49,4.66,4.66,0,0,1,2.49-.15V19.77A5.75,5.75,0,0,0,169,22.43Z"/><path class="cls-1" d="M181.9,23.27c1.9,0,3.15,1.34,3.23,3.42h3.74a7,7,0,0,0-13.94.2v6.83a6.58,6.58,0,0,0,7,6.93,6.8,6.8,0,0,0,7-6.73h-3.74c-.08,2.08-1.33,3.41-3.23,3.41s-3.22-1.42-3.22-3.61V26.89C178.68,24.69,179.94,23.27,181.9,23.27Z"/><path class="cls-1" d="M155.21,20a6.74,6.74,0,0,0-6,3.26,7.26,7.26,0,0,0-.94,3.67v6.67a7,7,0,1,0,13.94,0V26.89A6.58,6.58,0,0,0,155.21,20Zm3.23,13.76c0,2.19-1.27,3.61-3.23,3.61S152,35.91,152,33.72V26.89c0-2.2,1.27-3.62,3.23-3.62s3.23,1.42,3.23,3.62Z"/><path class="cls-1" d="M84.2,20c-4.11,0-7,2.85-7,7.14v6.82a8.34,8.34,0,0,0,.12,1.22,6.57,6.57,0,0,0,1.82,3.6,7.11,7.11,0,0,0,5,1.91,6.8,6.8,0,0,0,7-6.73H87.42c-.07,2.08-1.32,3.41-3.22,3.41S81,35.91,81,33.72V30.63h10.2V26.89A6.65,6.65,0,0,0,84.2,20Zm3.23,7.93H81V26.77c0-2.19,1.27-3.61,3.23-3.61s3.23,1.42,3.23,3.61Z"/><path class="cls-1" d="M198.32,20c-4.1,0-7,2.85-7,7.14v6.82a7.34,7.34,0,0,0,.13,1.22,6.5,6.5,0,0,0,1.82,3.6,7.08,7.08,0,0,0,5,1.91,6.8,6.8,0,0,0,7-6.73h-3.74c-.08,2.08-1.33,3.41-3.23,3.41s-3.22-1.42-3.22-3.61V30.63h10.19V26.89A6.65,6.65,0,0,0,198.32,20Zm3.23,7.93H195.1V26.77c0-2.19,1.26-3.61,3.22-3.61s3.23,1.42,3.23,3.61Z"/><polygon class="cls-1" points="65.96 13.48 62.22 13.48 62.22 40.45 74.88 40.45 75.69 36.79 65.96 36.79 65.96 13.48"/><path class="cls-1" d="M117,20h0a6.65,6.65,0,0,0-7,6.92v6.49a6.72,6.72,0,0,0,7,7.08h0c1.23,0,1.94-.83,2.89-1.77l.34-.31v2.08H124V26.88A6.65,6.65,0,0,0,117,20Zm0,17.18h0c-2,0-3.22-1.42-3.22-3.62V26.89c0-2.19,1.26-3.61,3.22-3.62h0c2,0,3.22,1.42,3.22,3.61v6.63C120.27,35.72,119,37.14,117,37.14Z"/></g></g></svg>