<svg id="Layer_1" data-name="Layer 1" xmlns="http://www.w3.org/2000/svg" viewBox="0 0 541.87 273.05"><defs><style>.cls-1{fill:#06c755;}</style></defs><path class="cls-1" d="M382.07,206h82.15a5.59,5.59,0,0,0,5.59-5.59V179.65a5.61,5.61,0,0,0-5.59-5.59H408.31V152.5h55.91a5.59,5.59,0,0,0,5.59-5.59V126.14a5.61,5.61,0,0,0-5.59-5.59H408.31V99h55.91a5.59,5.59,0,0,0,5.59-5.59V72.63A5.61,5.61,0,0,0,464.22,67H382a5.59,5.59,0,0,0-5.59,5.59v.12h0V200.32h0v.09A5.59,5.59,0,0,0,382,206Z"/><path class="cls-1" d="M159.92,206a5.59,5.59,0,0,0,5.59-5.59V179.65a5.61,5.61,0,0,0-5.59-5.59H104V72.63A5.61,5.61,0,0,0,98.42,67H77.66a5.59,5.59,0,0,0-5.59,5.59V200.32h0v.09A5.59,5.59,0,0,0,77.66,206h82.26"/><rect class="cls-1" x="183.09" y="67.04" width="31.95" height="138.97" rx="5.59"/><path class="cls-1" d="M350.81,67H330a5.59,5.59,0,0,0-5.59,5.59v75.9L266,69.57c-.14-.2-.29-.39-.45-.58,0,0,0,0,0,0l-.33-.35-.11-.09-.3-.26-.15-.11-.3-.2-.17-.11-.31-.17-.18-.08-.32-.14-.19-.07-.34-.11-.19-.05-.34-.07-.23,0-.31,0H240.59A5.59,5.59,0,0,0,235,72.63V200.42a5.59,5.59,0,0,0,5.59,5.59h20.77a5.59,5.59,0,0,0,5.59-5.59V124.54l58.54,79.06a5.67,5.67,0,0,0,1.44,1.41l.07,0c.11.08.23.15.35.22l.16.09.27.13.28.11.17.07.39.12.08,0a5.36,5.36,0,0,0,1.46.2h20.65a5.59,5.59,0,0,0,5.59-5.59V72.63A5.59,5.59,0,0,0,350.81,67Z"/></svg>