<svg id="logo" xmlns="http://www.w3.org/2000/svg" viewBox="0 0 1683.78 587.77"><defs><style>.cls-1{fill:#ed6103;}</style></defs><path class="cls-1" d="M122.39,312.31h31.18a2.84,2.84,0,0,1,2.84,2.84v112a4.25,4.25,0,0,0,4.25,4.25h75.12a2.83,2.83,0,0,1,2.83,2.83v31.18a2.84,2.84,0,0,1-2.83,2.84H130.89a11.34,11.34,0,0,1-11.33-11.34V315.15A2.83,2.83,0,0,1,122.39,312.31Z"/><path class="cls-1" d="M312.31,465.38V434.2a2.84,2.84,0,0,1,2.84-2.83h112a4.26,4.26,0,0,0,4.26-4.26V352a2.84,2.84,0,0,1,2.83-2.84h31.18a2.84,2.84,0,0,1,2.84,2.84V456.88a11.34,11.34,0,0,1-11.33,11.34H315.15A2.84,2.84,0,0,1,312.31,465.38Z"/><path class="cls-1" d="M465.38,275.46H434.2a2.83,2.83,0,0,1-2.83-2.83v-112a4.25,4.25,0,0,0-4.26-4.25H352a2.84,2.84,0,0,1-2.84-2.83V122.39a2.83,2.83,0,0,1,2.84-2.83H456.88a11.34,11.34,0,0,1,11.34,11.34V272.63A2.84,2.84,0,0,1,465.38,275.46Z"/><path class="cls-1" d="M275.46,122.39v31.18a2.84,2.84,0,0,1-2.83,2.84h-112a4.25,4.25,0,0,0-4.25,4.25v75.12a2.83,2.83,0,0,1-2.83,2.83H122.39a2.83,2.83,0,0,1-2.83-2.83V130.89a11.33,11.33,0,0,1,11.34-11.33H272.63A2.83,2.83,0,0,1,275.46,122.39Z"/><path class="cls-1" d="M763.53,215.93h31.18a2.84,2.84,0,0,1,2.84,2.84V369a2.84,2.84,0,0,1-2.84,2.84H763.53A2.84,2.84,0,0,1,760.7,369V218.77A2.84,2.84,0,0,1,763.53,215.93Z"/><path class="cls-1" d="M1276.88,215.93h31.18a2.84,2.84,0,0,1,2.83,2.84v112a4.26,4.26,0,0,0,4.25,4.25h75.12a2.84,2.84,0,0,1,2.84,2.84V369a2.84,2.84,0,0,1-2.84,2.84H1285.38A11.34,11.34,0,0,1,1274,360.5V218.77A2.84,2.84,0,0,1,1276.88,215.93Z"/><path class="cls-1" d="M1448,215.93h31.19a2.84,2.84,0,0,1,2.83,2.84v112a4.25,4.25,0,0,0,4.25,4.25h75.12a2.84,2.84,0,0,1,2.84,2.84V369a2.84,2.84,0,0,1-2.84,2.84H1456.51a11.34,11.34,0,0,1-11.34-11.34V218.77A2.84,2.84,0,0,1,1448,215.93Z"/><path class="cls-1" d="M590.11,215.93h31.18a2.84,2.84,0,0,1,2.83,2.84v112a4.26,4.26,0,0,0,4.25,4.25h75.12a2.84,2.84,0,0,1,2.84,2.84V369a2.84,2.84,0,0,1-2.84,2.84H598.61a11.34,11.34,0,0,1-11.34-11.34V218.77A2.84,2.84,0,0,1,590.11,215.93Z"/><path class="cls-1" d="M1212.61,293.88V218.77a2.83,2.83,0,0,0-2.83-2.84H1178.6a2.84,2.84,0,0,0-2.84,2.84v75.11c0,31.26-20.3,45.36-45.35,45.36s-45.35-14.1-45.35-45.36V218.77a2.84,2.84,0,0,0-2.84-2.84H1051a2.83,2.83,0,0,0-2.83,2.84v75.11h0c0,48.62,36.8,82.21,82.2,82.21s82.2-33.59,82.2-82.21Z"/><path class="cls-1" d="M989.53,215.93a2.84,2.84,0,0,1,2.84,2.84V250a2.84,2.84,0,0,1-2.84,2.83H914.42a4.26,4.26,0,0,0-4.26,4.25v17a1.42,1.42,0,0,0,1.42,1.41h77.95a2.84,2.84,0,0,1,2.84,2.84v31.18a2.84,2.84,0,0,1-2.84,2.83H911.58a1.43,1.43,0,0,0-1.42,1.42V369a2.83,2.83,0,0,1-2.83,2.84H876.15a2.84,2.84,0,0,1-2.84-2.84V227.27a11.34,11.34,0,0,1,11.34-11.34Z"/></svg>