<?xml version="1.0" encoding="utf-8"?>
<!-- Generator: Adobe Illustrator 25.4.1, SVG Export Plug-In . SVG Version: 6.00 Build 0)  -->
<svg version="1.1" id="レイヤー_1" xmlns="http://www.w3.org/2000/svg" xmlns:xlink="http://www.w3.org/1999/xlink" x="0px"
	 y="0px" viewBox="0 0 181.95 48.9" style="enable-background:new 0 0 181.95 48.9;" xml:space="preserve">
<g>
	<g>
		<path d="M51.55,36.28c-2.01-4.76-5.88-8.51-10.67-10.44c-0.27,1.48-0.69,2.9-1.25,4.2c0,0,0,0,0,0.01c3.3,1.44,5.98,4,7.55,7.22
			c-0.37,0.03-0.74,0.06-1.11,0.06c-3.37,0-6.46-1.12-8.97-2.98c-0.09-0.06-0.17-0.13-0.26-0.19c-0.08-0.07-0.18-0.13-0.26-0.2
			c-1.14-0.92-2.15-2.01-2.98-3.23c-0.07-0.1-0.13-0.21-0.19-0.31c-0.06-0.1-0.13-0.21-0.19-0.31c-0.13-0.22-0.26-0.44-0.38-0.67
			c-0.07,0.01-0.13,0.01-0.2,0.01l-0.08,0c-1.39,0.1-2.75,0.41-4.05,0.9c0.5,1.07,1.1,2.08,1.78,3.04c0.06,0.09,0.12,0.18,0.19,0.27
			c0.06,0.09,0.12,0.18,0.19,0.26c0.87,1.15,1.86,2.21,2.97,3.14c0.08,0.07,0.18,0.13,0.26,0.2c0.09,0.07,0.18,0.13,0.26,0.2
			c3.29,2.58,7.42,4.13,11.92,4.13c0.82,0,1.63-0.07,2.43-0.17c1.48-0.19,2.9-0.54,4.26-1.04C52.49,38.96,52.1,37.58,51.55,36.28z"
			/>
		<path d="M31.08,23.92L31.08,23.92c-0.07-0.56-0.12-1.12-0.12-1.69c0-3.16,0.97-6.08,2.63-8.5c1.65,2.42,2.62,5.35,2.62,8.5
			c0,0.57-0.05,1.13-0.12,1.68c-0.01,0.11-0.03,0.22-0.04,0.32c-0.01,0.11-0.02,0.21-0.04,0.32c-0.23,1.51-0.69,2.94-1.33,4.27
			c-0.05,0.11-0.11,0.21-0.16,0.31c-0.05,0.11-0.11,0.21-0.17,0.32c-0.12,0.23-0.25,0.45-0.38,0.67c0.05,0.08,0.1,0.17,0.16,0.25
			c0.79,1.15,1.74,2.18,2.82,3.07c0.69-0.96,1.3-1.98,1.8-3.06c0.05-0.1,0.09-0.2,0.14-0.3c0.05-0.1,0.1-0.2,0.14-0.3
			c0.57-1.33,0.98-2.74,1.24-4.2c0.02-0.11,0.03-0.22,0.05-0.33c0.02-0.11,0.03-0.22,0.05-0.33c0.13-0.91,0.23-1.83,0.23-2.78
			c0-4.4-1.48-8.45-3.95-11.71c-0.87-1.15-1.85-2.2-2.94-3.12c-1.14,0.95-2.16,2.03-3.06,3.21c-2.47,3.26-3.96,7.3-3.96,11.7
			c0,0.92,0.09,1.81,0.22,2.69C28.27,24.43,29.67,24.09,31.08,23.92z"/>
		<path d="M30.13,34.32C30.13,34.32,30.13,34.32,30.13,34.32c-2.52,1.88-5.63,3-9.02,3c-0.36,0-0.72-0.03-1.08-0.05
			c1.58-3.23,4.27-5.8,7.59-7.24c0.1-0.04,0.2-0.09,0.3-0.13c0.1-0.04,0.2-0.09,0.3-0.13c1.35-0.52,2.78-0.84,4.28-0.95
			c0.12-0.01,0.24-0.01,0.36-0.02c0.12-0.01,0.24-0.01,0.36-0.02c0.13-0.01,0.26-0.02,0.4-0.02c0.12,0,0.24,0.01,0.36,0.02
			c0.04-0.09,0.09-0.16,0.13-0.25c0.62-1.28,1.04-2.64,1.27-4.04c-0.58-0.06-1.15-0.1-1.74-0.1c-0.61,0-1.22,0.05-1.81,0.11
			c-0.11,0.01-0.21,0.02-0.32,0.03c-0.11,0.01-0.22,0.02-0.32,0.03c-1.45,0.18-2.84,0.53-4.16,1.01c-0.1,0.04-0.2,0.09-0.31,0.13
			c-0.1,0.04-0.2,0.09-0.31,0.13c-4.81,1.93-8.69,5.7-10.7,10.47c-0.55,1.3-0.94,2.68-1.2,4.1c1.35,0.49,2.76,0.84,4.23,1.02
			c0.79,0.1,1.6,0.17,2.42,0.17c4.51,0,8.66-1.55,11.96-4.13C32.02,36.55,31.03,35.5,30.13,34.32z"/>
	</g>
	<g>
		<g>
			<polygon points="66.29,29.42 63.61,21.78 59.12,21.78 59.12,33.54 61.82,33.54 61.76,24.74 61.77,24.74 65.16,33.54 67.43,33.54 
				70.81,24.74 70.82,24.74 70.76,33.54 73.45,33.54 73.45,21.78 68.96,21.78 			"/>
			<path d="M94.24,26.87v2.35h2.89c0,0.43-0.01,0.74-0.04,0.95c-0.05,0.33-0.26,0.54-0.61,0.61c-0.39,0.06-1.26,0.09-2.62,0.1
				c-1.24-0.02-1.98-0.05-2.22-0.08c-0.5-0.06-0.8-0.36-0.9-0.91c-0.07-0.41-0.11-1.17-0.11-2.28c0-0.97,0.03-1.65,0.1-2.02
				c0.09-0.5,0.34-0.8,0.76-0.9c0.43-0.1,1.22-0.15,2.36-0.15c1.28,0,2.13,0.04,2.57,0.11c0.33,0.06,0.52,0.23,0.58,0.52
				c0.02,0.11,0.04,0.33,0.04,0.65h2.74c0-0.49-0.01-0.85-0.02-1.08c-0.06-0.88-0.21-1.52-0.47-1.93c-0.3-0.45-0.8-0.77-1.53-0.95
				c-0.72-0.18-1.93-0.27-3.65-0.27c-1.34,0-2.4,0.04-3.19,0.14c-0.56,0.06-0.99,0.14-1.29,0.25c-0.31,0.1-0.56,0.25-0.76,0.44
				c-0.39,0.35-0.66,0.96-0.82,1.81c-0.11,0.62-0.17,1.68-0.17,3.2c0,0.9,0.01,1.74,0.03,2.53c0.02,0.63,0.09,1.19,0.2,1.68
				c0.24,1,0.87,1.61,1.88,1.83c0.73,0.16,1.94,0.24,3.64,0.24c0.95,0,1.78-0.02,2.48-0.05c0.66-0.03,1.27-0.12,1.82-0.26
				c1.07-0.28,1.66-1.1,1.77-2.46c0.06-0.84,0.09-2.03,0.09-3.57c0-0.08,0-0.24-0.01-0.5H94.24z"/>
			<path d="M106.22,21.78l-4.76,11.76h3.13l0.77-1.99h5.94l0.77,1.99h3.11l-4.7-11.76H106.22z M106.33,28.98l1.73-4.45h0.55
				l1.73,4.45H106.33z"/>
			<polygon points="126.9,24.6 126.9,21.78 116.84,21.78 116.84,24.6 122.47,24.6 116.69,30.71 116.69,33.54 127.1,33.54 
				127.1,30.71 121.03,30.71 			"/>
			<path d="M139.12,21.8c-0.73-0.13-2.04-0.19-3.92-0.19c-1.99,0-3.35,0.06-4.08,0.19c-1.05,0.18-1.69,0.84-1.93,1.96
				c-0.16,0.76-0.24,2.07-0.24,3.91c0,1.84,0.08,3.14,0.24,3.91c0.24,1.12,0.88,1.77,1.93,1.96c0.73,0.13,2.06,0.19,4,0.19
				c1.94,0,3.28-0.06,4-0.19c1.05-0.18,1.69-0.83,1.93-1.96c0.16-0.77,0.24-2.07,0.24-3.91c0-1.83-0.08-3.14-0.24-3.91
				C140.81,22.63,140.17,21.98,139.12,21.8z M138.46,29.53c-0.1,0.6-0.44,0.94-0.99,1.02c-0.41,0.07-1.19,0.1-2.36,0.1
				c-1.16,0-1.95-0.03-2.36-0.1c-0.55-0.08-0.88-0.43-1-1.02c-0.05-0.32-0.08-0.85-0.08-1.58c0-1.12,0.04-1.9,0.14-2.32
				c0.1-0.42,0.33-0.7,0.69-0.82c0.29-0.1,1.13-0.15,2.5-0.15c0.99,0,1.59,0,1.82,0.02c0.63,0.04,1.05,0.15,1.24,0.34
				c0.22,0.19,0.36,0.59,0.42,1.18c0.03,0.35,0.05,0.96,0.05,1.8C138.55,28.69,138.52,29.2,138.46,29.53z"/>
			<polygon points="152.74,30.55 148.45,21.78 143.94,21.78 143.94,33.54 146.69,33.54 146.69,24.76 151.01,33.54 155.48,33.54 
				155.48,21.78 152.74,21.78 			"/>
			<polygon points="167.46,24.55 167.46,21.78 158.68,21.78 158.68,33.54 167.46,33.54 167.46,30.72 161.38,30.72 161.38,28.83 
				167.46,28.83 167.46,26.25 161.38,26.25 161.38,24.55 			"/>
			<polygon points="76.46,33.54 85.24,33.54 85.24,30.72 79.16,30.72 79.16,28.83 85.24,28.83 85.24,26.25 79.16,26.25 79.16,24.55 
				85.24,24.55 85.24,21.78 76.46,21.78 			"/>
		</g>
		<g>
			<path d="M62.12,17.91c-0.06,0.38-0.22,0.67-0.46,0.87c-0.25,0.21-0.55,0.31-0.91,0.31c-0.4,0-0.73-0.14-1.01-0.41
				c-0.17-0.17-0.28-0.38-0.33-0.63c-0.03-0.15-0.04-0.46-0.04-0.91c0-0.45,0.01-0.75,0.04-0.91c0.05-0.25,0.16-0.46,0.33-0.64
				c0.27-0.27,0.61-0.41,1.01-0.41c0.36,0,0.66,0.1,0.9,0.31c0.24,0.2,0.4,0.5,0.47,0.87h-0.59c-0.05-0.21-0.13-0.36-0.26-0.47
				c-0.14-0.12-0.31-0.18-0.52-0.18c-0.23,0-0.42,0.08-0.56,0.23c-0.09,0.1-0.16,0.23-0.19,0.39c-0.03,0.16-0.04,0.43-0.04,0.8
				c0,0.39,0.01,0.66,0.04,0.81c0.03,0.15,0.09,0.28,0.19,0.38c0.14,0.15,0.33,0.23,0.56,0.23c0.21,0,0.38-0.06,0.51-0.18
				c0.13-0.12,0.22-0.28,0.27-0.48H62.12z"/>
			<path d="M69.63,19.05H67.2v-3.84h0.58v3.31h1.85V19.05z"/>
			<path d="M77.22,17.14c0,0.46-0.01,0.76-0.04,0.9c-0.04,0.25-0.15,0.46-0.33,0.64c-0.27,0.27-0.61,0.41-1.01,0.41
				c-0.4,0-0.73-0.14-1.01-0.41c-0.17-0.17-0.28-0.38-0.33-0.63c-0.03-0.15-0.04-0.46-0.04-0.91c0-0.45,0.02-0.75,0.04-0.91
				c0.05-0.25,0.16-0.46,0.33-0.64c0.27-0.27,0.61-0.41,1.01-0.41c0.2,0,0.39,0.03,0.56,0.1c0.17,0.07,0.32,0.17,0.45,0.31
				c0.17,0.17,0.28,0.38,0.32,0.63C77.21,16.38,77.22,16.69,77.22,17.14z M76.64,17.14c0-0.4-0.01-0.67-0.04-0.82
				c-0.03-0.14-0.09-0.27-0.19-0.38c-0.07-0.07-0.15-0.13-0.25-0.17c-0.1-0.04-0.21-0.06-0.32-0.06c-0.11,0-0.22,0.02-0.32,0.06
				c-0.1,0.04-0.19,0.1-0.25,0.17c-0.09,0.1-0.16,0.23-0.18,0.38c-0.03,0.15-0.04,0.42-0.04,0.81c0,0.4,0.01,0.67,0.04,0.82
				c0.03,0.14,0.09,0.27,0.19,0.37c0.07,0.07,0.15,0.13,0.25,0.17c0.1,0.04,0.2,0.06,0.32,0.06c0.11,0,0.22-0.02,0.32-0.06
				c0.1-0.04,0.19-0.1,0.25-0.17c0.09-0.1,0.15-0.23,0.18-0.38C76.62,17.8,76.64,17.52,76.64,17.14z"/>
			<path d="M85.09,17.76c0,0.39-0.13,0.71-0.39,0.96c-0.26,0.25-0.59,0.37-0.99,0.37c-0.39,0-0.72-0.12-0.98-0.37
				c-0.26-0.25-0.39-0.56-0.39-0.96v-2.54h0.58v2.52c0,0.25,0.07,0.46,0.21,0.6c0.14,0.15,0.34,0.22,0.58,0.22
				c0.24,0,0.43-0.07,0.58-0.22c0.15-0.15,0.22-0.35,0.22-0.6v-2.52h0.58V17.76z"/>
			<path d="M93.06,17.11c0,0.05,0,0.09,0,0.12c0,0.04,0,0.06,0,0.09c0,0.33-0.02,0.57-0.05,0.74c-0.05,0.25-0.17,0.47-0.33,0.64
				c-0.12,0.12-0.26,0.21-0.43,0.27c-0.17,0.06-0.36,0.09-0.56,0.09h-1.35v-3.84h1.35c0.42,0,0.75,0.12,0.99,0.36
				c0.18,0.18,0.3,0.42,0.35,0.71C93.05,16.44,93.06,16.71,93.06,17.11z M92.48,17.11c0-0.32-0.01-0.54-0.03-0.67
				c-0.03-0.19-0.09-0.34-0.18-0.44c-0.16-0.17-0.38-0.26-0.65-0.26h-0.7v2.79h0.7c0.28,0,0.5-0.09,0.65-0.26
				c0.09-0.1,0.15-0.26,0.18-0.46C92.47,17.67,92.48,17.44,92.48,17.11z"/>
			<path d="M104.42,19.05h-0.58v-3.84h0.58V19.05z"/>
			<path d="M112.62,19.05h-0.53l-1.77-2.7v2.7h-0.58v-3.84h0.53l1.77,2.69v-2.69h0.58V19.05z"/>
			<path d="M120.81,19.05h-0.53l-1.77-2.7v2.7h-0.58v-3.84h0.53l1.77,2.69v-2.69h0.58V19.05z"/>
			<path d="M128.74,17.14c0,0.46-0.01,0.76-0.04,0.9c-0.04,0.25-0.15,0.46-0.33,0.64c-0.27,0.27-0.61,0.41-1.01,0.41
				c-0.4,0-0.73-0.14-1.01-0.41c-0.17-0.17-0.28-0.38-0.33-0.63c-0.03-0.15-0.04-0.46-0.04-0.91c0-0.45,0.02-0.75,0.04-0.91
				c0.05-0.25,0.16-0.46,0.33-0.64c0.27-0.27,0.61-0.41,1.01-0.41c0.2,0,0.39,0.03,0.56,0.1c0.17,0.07,0.32,0.17,0.46,0.31
				c0.17,0.17,0.28,0.38,0.32,0.63C128.73,16.38,128.74,16.69,128.74,17.14z M128.16,17.14c0-0.4-0.01-0.67-0.04-0.82
				c-0.03-0.14-0.09-0.27-0.19-0.38c-0.07-0.07-0.15-0.13-0.25-0.17c-0.1-0.04-0.21-0.06-0.32-0.06c-0.11,0-0.22,0.02-0.32,0.06
				c-0.1,0.04-0.19,0.1-0.25,0.17c-0.09,0.1-0.15,0.23-0.18,0.38c-0.03,0.15-0.04,0.42-0.04,0.81c0,0.4,0.01,0.67,0.04,0.82
				c0.03,0.14,0.09,0.27,0.18,0.37c0.07,0.07,0.15,0.13,0.25,0.17c0.1,0.04,0.2,0.06,0.32,0.06c0.11,0,0.22-0.02,0.32-0.06
				c0.1-0.04,0.19-0.1,0.25-0.17c0.09-0.1,0.15-0.23,0.18-0.38C128.15,17.8,128.16,17.52,128.16,17.14z"/>
			<path d="M136.42,15.22l-1.27,3.84h-0.45l-1.26-3.84h0.6l0.88,2.79l0.89-2.79H136.42z"/>
			<path d="M144.08,19.05h-0.62l-0.26-0.77h-1.52l-0.26,0.77h-0.62l1.41-3.84h0.47L144.08,19.05z M143.04,17.79l-0.58-1.7l-0.6,1.7
				H143.04z"/>
			<path d="M151.29,15.74h-1.05v3.31h-0.58v-3.31h-1.05v-0.52h2.69V15.74z"/>
			<path d="M158.88,17.14c0,0.46-0.01,0.76-0.04,0.9c-0.04,0.25-0.15,0.46-0.33,0.64c-0.27,0.27-0.61,0.41-1.01,0.41
				c-0.4,0-0.73-0.14-1.01-0.41c-0.17-0.17-0.28-0.38-0.33-0.63c-0.03-0.15-0.04-0.46-0.04-0.91c0-0.45,0.01-0.75,0.04-0.91
				c0.05-0.25,0.16-0.46,0.33-0.64c0.27-0.27,0.61-0.41,1.01-0.41c0.2,0,0.39,0.03,0.56,0.1c0.17,0.07,0.32,0.17,0.45,0.31
				c0.17,0.17,0.28,0.38,0.33,0.63C158.87,16.38,158.88,16.69,158.88,17.14z M158.3,17.14c0-0.4-0.01-0.67-0.04-0.82
				c-0.03-0.14-0.09-0.27-0.18-0.38c-0.07-0.07-0.15-0.13-0.25-0.17c-0.1-0.04-0.21-0.06-0.32-0.06c-0.11,0-0.22,0.02-0.32,0.06
				c-0.1,0.04-0.19,0.1-0.25,0.17c-0.09,0.1-0.16,0.23-0.18,0.38c-0.03,0.15-0.04,0.42-0.04,0.81c0,0.4,0.01,0.67,0.04,0.82
				c0.03,0.14,0.09,0.27,0.19,0.37c0.07,0.07,0.15,0.13,0.25,0.17c0.1,0.04,0.21,0.06,0.32,0.06c0.11,0,0.22-0.02,0.32-0.06
				c0.1-0.04,0.19-0.1,0.25-0.17c0.09-0.1,0.15-0.23,0.18-0.38C158.28,17.8,158.3,17.52,158.3,17.14z"/>
			<path d="M166.85,19.05l-0.68,0l-0.81-1.62l-0.73,0v1.62h-0.58v-3.84h1.49c0.36,0,0.65,0.1,0.86,0.31
				c0.22,0.21,0.33,0.48,0.33,0.81c0,0.26-0.07,0.48-0.21,0.66c-0.14,0.18-0.33,0.3-0.55,0.36L166.85,19.05z M166.15,16.35
				c0-0.19-0.06-0.33-0.18-0.44c-0.12-0.11-0.28-0.16-0.48-0.16h-0.86v1.21h0.86c0.2,0,0.35-0.05,0.47-0.16
				C166.09,16.68,166.15,16.54,166.15,16.35z"/>
		</g>
	</g>
</g>
</svg>
