<?xml version="1.0" encoding="UTF-8"?>
<!DOCTYPE svg PUBLIC "-//W3C//DTD SVG 1.1//EN" "http://www.w3.org/Graphics/SVG/1.1/DTD/svg11.dtd">
<svg xmlns="http://www.w3.org/2000/svg" version="1.1" width="283px" height="80px" style="shape-rendering:geometricPrecision; text-rendering:geometricPrecision; image-rendering:optimizeQuality; fill-rule:evenodd; clip-rule:evenodd" xmlns:xlink="http://www.w3.org/1999/xlink">
<g><path style="opacity:1" fill="#fbfbfd" d="M -0.5,-0.5 C 93.8333,-0.5 188.167,-0.5 282.5,-0.5C 282.5,26.1667 282.5,52.8333 282.5,79.5C 188.167,79.5 93.8333,79.5 -0.5,79.5C -0.5,52.8333 -0.5,26.1667 -0.5,-0.5 Z"/></g>
<g><path style="opacity:1" fill="#1a17a1" d="M 277.5,5.5 C 278.055,9.01215 277.388,12.0122 275.5,14.5C 261.695,11.4143 248.028,11.9143 234.5,16C 224.605,20.6114 219.938,28.4447 220.5,39.5C 222.028,59.3818 232.861,68.3818 253,66.5C 261.542,66.2861 270.042,65.6194 278.5,64.5C 279.044,68.6732 278.377,72.5065 276.5,76C 255.709,78.5292 235.042,77.8625 214.5,74C 197.208,69.3559 189.208,58.0225 190.5,40C 189.362,25.4817 195.362,15.1484 208.5,9C 231.258,3.14215 254.258,1.97548 277.5,5.5 Z"/></g>
<g><path style="opacity:1" fill="#504fb8" d="M 184.5,6.5 C 157.5,6.5 130.5,6.5 103.5,6.5C 103.5,24.5 103.5,42.5 103.5,60.5C 102.503,42.3409 102.17,24.0076 102.5,5.5C 130.005,5.16876 157.338,5.50209 184.5,6.5 Z"/></g>
<g><path style="opacity:1" fill="#8787ce" d="M 277.5,5.5 C 278.479,8.62482 278.813,11.9581 278.5,15.5C 277.209,15.7373 276.209,15.404 275.5,14.5C 277.388,12.0122 278.055,9.01215 277.5,5.5 Z"/></g>
<g><path style="opacity:1" fill="#1715a0" d="M 76.5,54.5 C 76.56,55.0431 76.8933,55.3764 77.5,55.5C 78.4994,39.1803 78.8328,22.8469 78.5,6.5C 82.5,6.5 86.5,6.5 90.5,6.5C 90.5,29.1667 90.5,51.8333 90.5,74.5C 81.8333,74.5 73.1667,74.5 64.5,74.5C 59.5032,73.2448 55.3365,70.5781 52,66.5C 40.3333,53.1667 28.6667,39.8333 17,26.5C 16.5001,42.8299 16.3334,59.1633 16.5,75.5C 12.1667,75.5 7.83333,75.5 3.5,75.5C 3.5,52.1667 3.5,28.8333 3.5,5.5C 11.5069,5.33362 19.5069,5.50029 27.5,6C 29.9494,6.72457 32.2827,7.72457 34.5,9C 49.0455,23.7103 63.0455,38.8769 76.5,54.5 Z"/></g>
<g><path style="opacity:1" fill="#8a8acf" d="M 78.5,5.5 C 78.5,5.83333 78.5,6.16667 78.5,6.5C 78.8328,22.8469 78.4994,39.1803 77.5,55.5C 76.8933,55.3764 76.56,55.0431 76.5,54.5C 77.1667,38.1667 77.8333,21.8333 78.5,5.5 Z"/></g>
<g><path style="opacity:1" fill="#5151b8" d="M 78.5,6.5 C 78.5,6.16667 78.5,5.83333 78.5,5.5C 82.8333,5.5 87.1667,5.5 91.5,5.5C 91.5,28.8333 91.5,52.1667 91.5,75.5C 82.3178,75.8266 73.3178,75.4933 64.5,74.5C 73.1667,74.5 81.8333,74.5 90.5,74.5C 90.5,51.8333 90.5,29.1667 90.5,6.5C 86.5,6.5 82.5,6.5 78.5,6.5 Z"/></g>
<g><path style="opacity:1" fill="#1615a0" d="M 184.5,6.5 C 184.5,9.5 184.5,12.5 184.5,15.5C 166.833,15.5 149.167,15.5 131.5,15.5C 131.5,21.5 131.5,27.5 131.5,33.5C 147.5,33.5 163.5,33.5 179.5,33.5C 179.5,36.5 179.5,39.5 179.5,42.5C 163.5,42.5 147.5,42.5 131.5,42.5C 130.919,49.0614 131.752,55.3947 134,61.5C 135.419,62.4601 136.919,63.2935 138.5,64C 154.163,64.4999 169.83,64.6666 185.5,64.5C 185.5,68.1667 185.5,71.8333 185.5,75.5C 162.831,75.6666 140.164,75.5 117.5,75C 109.234,73.5683 104.567,68.735 103.5,60.5C 103.5,42.5 103.5,24.5 103.5,6.5C 130.5,6.5 157.5,6.5 184.5,6.5 Z"/></g>
<g><path style="opacity:1" fill="#c3c3e6" d="M 184.5,15.5 C 167.341,16.4967 150.008,16.83 132.5,16.5C 132.5,21.8333 132.5,27.1667 132.5,32.5C 148.342,32.1704 164.009,32.5037 179.5,33.5C 163.5,33.5 147.5,33.5 131.5,33.5C 131.5,27.5 131.5,21.5 131.5,15.5C 149.167,15.5 166.833,15.5 184.5,15.5 Z"/></g>
</svg>
