<svg xmlns="http://www.w3.org/2000/svg" xmlns:xlink="http://www.w3.org/1999/xlink" width="325" height="94" viewBox="0 0 325 94">
  <defs>
    <clipPath id="clip-scalar_LOGO_02">
      <rect width="325" height="94"/>
    </clipPath>
  </defs>
  <g id="scalar_LOGO_02" clip-path="url(#clip-scalar_LOGO_02)">
    <g id="グループ_25" data-name="グループ 25" transform="translate(-219.078 555.126)">
      <g id="グループ_24" data-name="グループ 24" transform="translate(333.558 -525.399)" style="isolation: isolate">
        <path id="パス_111" data-name="パス 111" d="M315.3-526.28a7.475,7.475,0,0,0-5.5-2.66c-1.92,0-4.318.654-4.318,3.1,0,2.051,1.832,2.7,4.755,3.621,4.189,1.352,9.6,3.14,9.6,9.291,0,7.11-5.715,10.294-11.822,10.294-4.406,0-8.854-1.614-11.559-4.449l4.886-4.973a9.134,9.134,0,0,0,6.673,3.272c2.269,0,4.276-.872,4.276-3.36,0-2.355-2.357-3.1-6.413-4.406-3.926-1.265-7.9-3.272-7.9-8.854,0-6.85,6.195-9.685,11.952-9.685a15.45,15.45,0,0,1,10.122,3.795Z" transform="translate(-296.452 535.134)" fill="#2673bb"/>
        <path id="パス_112" data-name="パス 112" d="M335.56-502.578c-9.51,0-16.62-6.632-16.62-16.315,0-9.9,7.328-16.227,16.752-16.227,4.318,0,8.984,1.571,11.559,4.536l-5.059,5.061a7.7,7.7,0,0,0-6.239-2.837c-5.192,0-8.9,4.013-8.9,9.467,0,5.627,3.621,9.467,8.768,9.467a7.883,7.883,0,0,0,6.544-3.141l5.19,4.886A15.333,15.333,0,0,1,335.56-502.578Z" transform="translate(-285.525 535.12)" fill="#2673bb"/>
        <path id="パス_113" data-name="パス 113" d="M368.336-503.678l-2.4-6.064H353.983l-2.269,6.064H343.6l12.957-30.884H363.8l12.825,30.884Zm-8.288-22.64-3.927,10.6h7.765Z" transform="translate(-273.544 535.391)" fill="#2673bb"/>
        <path id="パス_114" data-name="パス 114" d="M372.548-503.678v-30.884h7.5v24.383H392v6.5Z" transform="translate(-259.478 535.391)" fill="#2673bb"/>
        <path id="パス_115" data-name="パス 115" d="M416.923-503.678l-2.4-6.064H402.569l-2.267,6.064h-8.114l12.957-30.884h7.241l12.825,30.884Zm-8.288-22.64-3.927,10.6h7.765Z" transform="translate(-249.936 535.391)" fill="#2673bb"/>
        <path id="パス_116" data-name="パス 116" d="M437.666-503.678l-6.673-12.259h-2.53v12.259h-7.328v-30.884h11.777c5.933,0,11.822,2.267,11.822,9.334,0,4.144-2.441,7.111-6.412,8.331l8.07,13.218Zm-5.276-24.865h-3.97v7.2h3.533c2.4,0,5.409-.611,5.409-3.752C437.361-527.977,434.614-528.543,432.39-528.543Z" transform="translate(-235.871 535.391)" fill="#2673bb"/>
      </g>
      <path id="パス_2110" data-name="パス 2110" d="M304.4-528.82l-3.189-5.505a4.888,4.888,0,0,0-1.507-1.516L289.033-542c-.527-.3-.958-.055-.958.554v7.162l-16.532-9.322,6.382-3.7a.582.582,0,0,0,.377-.73.581.581,0,0,0-.377-.376l-10.667-6.159a4.753,4.753,0,0,0-2.064-.553h-6.36a4.715,4.715,0,0,0-2.061.553l-10.67,6.159a.582.582,0,0,0,0,1.106l6.382,3.7-16.529,9.322v-7.165c0-.606-.435-.851-.967-.554l-10.663,6.162a4.846,4.846,0,0,0-1.513,1.516l-3.183,5.505a4.891,4.891,0,0,0-.553,2.065v12.322c0,.6.426.86.957.553l6.083-3.514v18.746l-6.083-3.516c-.529-.293-.957-.039-.957.554v12.321a4.846,4.846,0,0,0,.553,2.055l3.183,5.53a4.7,4.7,0,0,0,1.513,1.5l10.663,6.166c.532.312.96.058.96-.553v-7.212l16.495,9.211-6.34,3.658a.592.592,0,0,0-.343.764.6.6,0,0,0,.343.343l10.67,6.15a4.829,4.829,0,0,0,2.061.553h6.36a4.842,4.842,0,0,0,2.064-.553l10.667-6.15a.593.593,0,0,0,.343-.764.592.592,0,0,0-.343-.343l-6.36-3.664,16.346-9.183v7.1c0,.612.425.851.961.553l10.669-6.158a4.833,4.833,0,0,0,1.5-1.516l3.189-5.505a4.978,4.978,0,0,0,.553-2.062V-501.7c0-.609-.428-.863-.96-.553l-5.929,3.418v-18.56l6.083,3.514c.529.309.957.064.957-.553v-12.322A4.929,4.929,0,0,0,304.4-528.82Zm-16.315-2.293v3.764a4.775,4.775,0,0,0,.553,2.059l1.643,2.838a4.776,4.776,0,0,0,1.507,1.519L295.137-519v21.755l-3.517,2.027a4.98,4.98,0,0,0-1.513,1.513l-.086.16-10.03-5.807v-10.265a1.237,1.237,0,0,0-.581-1l-.177-.1a1.228,1.228,0,0,0-1.153,0l-2.8,1.615v-6.692l-5.782-3.34,2.8-1.618a1.266,1.266,0,0,0,.578-1v-.205a1.291,1.291,0,0,0-.578-1l-8.9-5.132V-539.7h.276a5.062,5.062,0,0,0,2.061-.553l3.042-1.77Zm-32.428,25.994-4.149-2.38v-6.67l5.807-3.346,4.129,2.38c.315.183.581.327.581.327s.251-.144.579-.327l4.132-2.38,5.779,3.34v6.692l-4.123,2.383c-.318.174-.577.325-.577.325v5.443l-5.786,3.34-5.807-3.36v-5.424Zm-26.749-13.874,3.346-1.936a4.95,4.95,0,0,0,1.51-1.517l1.66-2.838a4.96,4.96,0,0,0,.553-2.059v-3.77l19.3-10.9,3.042,1.77a5.049,5.049,0,0,0,2.062.554h.257v11.614l-8.887,5.132a1.283,1.283,0,0,0-.578,1v.2a1.293,1.293,0,0,0,.578,1l2.8,1.618-5.807,3.348v6.67l-2.8-1.609a1.29,1.29,0,0,0-1.158,0l-.175.094a1.3,1.3,0,0,0-.575,1v10.263l-10.2,5.9-.088-.158a4.9,4.9,0,0,0-1.511-1.505l-3.345-1.935Zm39.884,44.779-3.065-1.768a4.952,4.952,0,0,0-2.059-.553h-3.282a4.921,4.921,0,0,0-2.062.553l-3.086,1.785-19.276-10.785v-3.733a4.951,4.951,0,0,0-.553-2.048l-.172-.306,10.193-5.89,8.887,5.135a1.251,1.251,0,0,0,1.156,0l.174-.1a1.306,1.306,0,0,0,.578-1v-3.227l5.807,3.34,5.786-3.34v3.227a1.282,1.282,0,0,0,.575,1l.174.1a1.261,1.261,0,0,0,1.165,0l8.887-5.135,10.033,5.807-.172.293a5,5,0,0,0-.553,2.068v3.847Z" transform="translate(0 0)" fill="#2673bb"/>
    </g>
  </g>
</svg>
